<svg xmlns="http://www.w3.org/2000/svg" width="124" height="58" fill="none" viewBox="0 0 124 58">
  <rect width="119" height="33" y="24.741" fill="#E1E2F0" rx="16.5" transform="rotate(-12 0 24.741)"/>
  <path fill="#42389E" d="m15.879 43.562-2.038-9.586 3.753-.797c.675-.144 1.259-.158 1.751-.043.501.113.905.332 1.213.658.306.317.51.717.613 1.2.103.484.085.913-.056 1.286-.14.374-.365.684-.675.931a3.065 3.065 0 0 1-1.042.55l.173-.194a2.205 2.205 0 0 1 1.223.098c.394.146.729.375 1.005.688.275.305.458.671.549 1.1.107.502.08.98-.082 1.435-.154.443-.44.828-.856 1.155-.42.318-.967.549-1.642.693l-3.89.826Zm1.358-1.691 2-.425c.538-.115.93-.332 1.177-.651.247-.32.322-.708.225-1.165-.097-.456-.328-.784-.695-.982-.369-.208-.822-.255-1.361-.14l-1.972.418.626 2.945Zm-.89-4.19 1.875-.4c.53-.112.906-.316 1.13-.612.221-.304.286-.671.195-1.1-.09-.42-.296-.72-.62-.899-.326-.188-.759-.225-1.297-.11l-1.863.395.58 2.725Zm8.144 4.05-1.466-6.901 1.643-.35 1.467 6.902-1.644.35Zm-.878-8.171a1.102 1.102 0 0 1-.811-.114.972.972 0 0 1-.436-.637.899.899 0 0 1 .142-.746 1.1 1.1 0 0 1 .695-.434c.301-.064.567-.025.798.116a.88.88 0 0 1 .447.621.95.95 0 0 1-.153.763c-.153.223-.38.367-.682.43Zm4.42 7.419-2.095-9.86 1.643-.35 2.096 9.86-1.643.35Zm3.478-.74-2.096-9.859 1.644-.35 2.095 9.86-1.643.35Zm6.743-1.26c-.684.145-1.318.127-1.9-.055a3.244 3.244 0 0 1-1.487-1c-.406-.477-.684-1.067-.834-1.77-.155-.73-.15-1.4.017-2.007.176-.61.491-1.125.945-1.546.464-.423 1.043-.709 1.736-.856.676-.143 1.297-.118 1.863.077a3.18 3.18 0 0 1 1.423.971c.38.444.638.98.772 1.61l.064.302c.023.11.038.226.045.348l-5.614 1.193-.224-1.054 3.984-.847c-.124-.498-.377-.855-.756-1.07-.382-.224-.81-.286-1.285-.185a1.948 1.948 0 0 0-.882.43c-.25.216-.424.496-.522.842-.1.336-.101.737-.002 1.202l.084.398c.091.429.247.782.469 1.06.23.275.5.466.808.572.316.095.648.105.995.032.383-.082.68-.23.892-.448.22-.218.361-.477.422-.776l1.67-.355a3.286 3.286 0 0 1-.382 1.298c-.22.4-.524.745-.91 1.037a3.602 3.602 0 0 1-1.39.596Zm7.94-1.688c-.639.136-1.242.102-1.81-.102a3.284 3.284 0 0 1-1.452-1.037c-.39-.49-.659-1.08-.806-1.775-.148-.694-.137-1.34.031-1.939.167-.608.468-1.12.904-1.537a3.26 3.26 0 0 1 1.624-.846c.52-.11.994-.106 1.42.013a2.31 2.31 0 0 1 1.106.624l-.833-3.917 1.644-.349 2.095 9.86-1.479.314-.377-.965c-.103.232-.24.462-.412.689a2.67 2.67 0 0 1-.663.585c-.269.171-.6.299-.992.382Zm.04-1.497c.392-.083.72-.248.983-.495a1.97 1.97 0 0 0 .532-.929c.094-.363.096-.76.005-1.189a2.566 2.566 0 0 0-.488-1.084 1.875 1.875 0 0 0-.861-.619 2.01 2.01 0 0 0-1.1-.052 1.96 1.96 0 0 0-.955.489 1.97 1.97 0 0 0-.549.918c-.094.364-.096.76-.005 1.19.092.428.254.79.488 1.083.244.292.536.502.878.63.34.118.698.138 1.072.058Zm11.39-.932c-.566.12-1.057.125-1.472.012-.415-.112-.748-.308-.998-.589a2.107 2.107 0 0 1-.495-.982c-.093-.439-.064-.84.087-1.207.16-.368.441-.685.842-.952.4-.276.919-.481 1.558-.617l1.74-.37c-.078-.365-.193-.656-.343-.872a1.09 1.09 0 0 0-.582-.448c-.236-.075-.518-.077-.846-.007-.375.08-.676.234-.904.464-.23.22-.34.511-.33.872l-1.615.343c-.05-.504.025-.96.225-1.364.198-.415.5-.765.907-1.052.414-.298.89-.504 1.429-.619.648-.137 1.224-.14 1.73-.01a2.36 2.36 0 0 1 1.244.738c.334.359.563.83.687 1.414l.908 4.273-1.397.297-.4-1.075a2.168 2.168 0 0 1-.248.583 2.376 2.376 0 0 1-.392.512c-.16.149-.351.28-.575.394-.215.113-.468.2-.76.262Zm.093-1.38a1.71 1.71 0 0 0 .67-.285c.188-.145.337-.32.446-.524.117-.216.193-.442.228-.678.036-.237.041-.481.016-.733l-.006-.028-1.52.323c-.32.068-.575.165-.768.292-.194.118-.322.26-.382.425a.957.957 0 0 0-.03.536.89.89 0 0 0 .242.463c.12.118.276.195.465.231.188.036.402.03.639-.021Zm5.435.034-1.467-6.902 1.451-.309.368 1.125c.125-.447.358-.83.7-1.151.342-.321.783-.539 1.321-.653.557-.118 1.057-.1 1.5.053a2.28 2.28 0 0 1 1.12.822c.314.4.542.934.683 1.6l.856 4.026-1.644.35-.823-3.876c-.122-.575-.344-.99-.666-1.247-.321-.256-.733-.33-1.235-.224-.33.07-.61.21-.841.422a1.7 1.7 0 0 0-.47.816c-.085.323-.082.695.007 1.115l.783 3.683-1.643.35Zm8.264-1.757-1.466-6.901 1.451-.309.368 1.124c.124-.446.358-.83.7-1.15.342-.321.782-.539 1.321-.654.557-.118 1.057-.1 1.5.054a2.28 2.28 0 0 1 1.12.821c.313.401.541.935.683 1.601l.855 4.026-1.643.35-.824-3.876c-.122-.575-.344-.99-.665-1.247-.322-.256-.734-.33-1.236-.224a1.76 1.76 0 0 0-.84.422 1.71 1.71 0 0 0-.471.816c-.084.323-.082.694.008 1.114l.783 3.684-1.644.35Zm10.86-2.136c-.556.118-1.059.11-1.507-.023a2.28 2.28 0 0 1-1.12-.821c-.306-.412-.53-.951-.672-1.618l-.859-4.04 1.644-.349.823 3.876c.126.593.346 1.019.658 1.277.32.247.735.316 1.247.207.328-.07.604-.21.826-.419.232-.211.39-.479.474-.802.091-.334.091-.716 0-1.145l-.783-3.683 1.643-.35 1.467 6.902-1.451.309-.368-1.124c-.125.446-.363.83-.714 1.153-.342.32-.778.538-1.307.65Zm8.005-1.701c-.566.12-1.056.124-1.471.012-.416-.112-.748-.308-.999-.59a2.107 2.107 0 0 1-.495-.982c-.093-.438-.064-.84.087-1.206.16-.368.441-.685.843-.952.4-.276.919-.482 1.558-.617l1.739-.37c-.078-.365-.192-.656-.343-.872a1.09 1.09 0 0 0-.582-.449c-.235-.074-.517-.076-.846-.006-.374.08-.675.234-.903.464-.23.22-.34.511-.33.872l-1.616.343c-.05-.505.025-.96.225-1.365.198-.414.5-.764.907-1.051.414-.298.89-.504 1.43-.619.647-.137 1.224-.14 1.729-.01a2.36 2.36 0 0 1 1.244.738c.334.358.563.83.687 1.414l.908 4.273-1.397.296-.4-1.074a2.168 2.168 0 0 1-.248.582 2.376 2.376 0 0 1-.392.513c-.16.149-.35.28-.575.394a2.93 2.93 0 0 1-.76.262Zm.093-1.38a1.71 1.71 0 0 0 .67-.285c.188-.145.337-.32.447-.524a2.09 2.09 0 0 0 .228-.678 2.99 2.99 0 0 0 .015-.734l-.005-.027-1.52.323c-.32.068-.576.165-.769.292-.194.118-.321.26-.382.425a.958.958 0 0 0-.029.535c.04.192.121.347.242.464a.87.87 0 0 0 .464.23c.189.037.402.03.64-.02Zm5.435.034-2.095-9.86 1.643-.35 2.095 9.86-1.643.35Zm3.477-.74-2.095-9.86 1.643-.349 2.095 9.86-1.643.35Zm4.953 2.097.881-4.138-.411.088-4.056-5.55 1.794-.382 3.049 4.247.949-5.096 1.74-.37-2.207 10.831-1.739.37Z"/>
</svg>
