<svg xmlns="http://www.w3.org/2000/svg" width="22" height="17" viewBox="0 0 22 17" fill="none">
  <path d="M16.4776 7.0001C16.485 7 16.4925 7 16.5 7C18.9853 7 21 9.0147 21 11.5C21 13.9853 18.9853 16 16.5 16H6C3.23858 16 1 13.7614 1 11C1 8.4003 2.98398 6.26407 5.52042 6.0227M16.4776 7.0001C16.4924 6.83536 16.5 6.66856 16.5 6.5C16.5 3.46243 14.0376 1 11 1C8.12324 1 5.76233 3.20862 5.52042 6.0227M16.4776 7.0001C16.3753 8.1345 15.9286 9.1696 15.2428 10M5.52042 6.0227C5.67826 6.00768 5.83823 6 6 6C7.12582 6 8.16474 6.37209 9.0005 7" stroke="#42389E" stroke-width="1.5" stroke-linecap="round" stroke-linejoin="round"/>
</svg>