<svg xmlns="http://www.w3.org/2000/svg" width="98" height="61" fill="none" viewBox="0 0 98 61">
  <path fill="url(#a)" d="M76.828 3.212 11.8 18.374C5.615 19.817 1.77 26 3.212 32.185L7.021 48.52c1.442 6.185 7.625 10.03 13.81 8.588l74.767-17.433a1.5 1.5 0 0 0 1.12-1.802L90.64 11.8c-1.442-6.185-7.625-10.03-13.81-8.588Z"/>
  <path stroke="url(#b)" d="M76.828 3.212 11.8 18.374C5.615 19.817 1.77 26 3.212 32.185L7.021 48.52c1.442 6.185 7.625 10.03 13.81 8.588l74.767-17.433a1.5 1.5 0 0 0 1.12-1.802L90.64 11.8c-1.442-6.185-7.625-10.03-13.81-8.588Z"/>
  <path fill="#fff" d="M54.637 33.049c-.617.143-1.18.128-1.691-.048a2.85 2.85 0 0 1-1.293-.928c-.353-.44-.604-.98-.753-1.618-.151-.648-.163-1.248-.035-1.8.127-.554.38-1.023.757-1.406.378-.382.867-.644 1.467-.784a3.065 3.065 0 0 1 1.358-.032 2.327 2.327 0 0 1 1.773 1.56l-1.208.282a1.485 1.485 0 0 0-.636-.666c-.286-.16-.627-.195-1.022-.103a1.585 1.585 0 0 0-.845.486c-.215.24-.356.544-.422.912-.066.366-.047.776.06 1.23.108.464.272.849.491 1.153.22.305.48.52.78.646.304.124.632.146.983.064.235-.055.438-.148.609-.278a1.34 1.34 0 0 0 .398-.49c.094-.195.141-.413.14-.655l1.208-.282a2.41 2.41 0 0 1-.145 1.198c-.149.376-.39.7-.723.974-.33.272-.747.467-1.25.585Zm3.175-9.838 1.982 8.5-1.241.289-1.982-8.5 1.241-.289Zm6.366 7.613c-.597.14-1.15.124-1.66-.046a2.845 2.845 0 0 1-1.306-.908c-.36-.435-.618-.982-.772-1.64-.154-.661-.165-1.268-.035-1.82a2.83 2.83 0 0 1 .769-1.396c.382-.378.871-.637 1.469-.776.597-.14 1.15-.124 1.66.046.51.17.945.474 1.306.912.362.438.62.987.774 1.648.154.659.165 1.263.034 1.813a2.845 2.845 0 0 1-.77 1.391c-.382.378-.871.637-1.469.776Zm-.238-1.043c.387-.09.684-.267.89-.531.208-.264.332-.58.375-.95a3.34 3.34 0 0 0-.076-1.168 3.325 3.325 0 0 0-.448-1.077 1.874 1.874 0 0 0-.757-.694c-.303-.148-.648-.177-1.035-.087-.39.091-.69.27-.899.538a1.904 1.904 0 0 0-.376.958c-.042.37-.016.757.079 1.163.095.41.244.77.445 1.083.204.31.457.54.759.685.305.144.653.171 1.043.08Zm7.986-3.687-.87-3.73 1.246-.29 1.486 6.374-1.22.284-.258-1.104-.066.016a2.042 2.042 0 0 1-.507 1.015c-.269.299-.642.504-1.121.616-.41.095-.793.09-1.15-.016a1.946 1.946 0 0 1-.928-.637c-.26-.316-.451-.737-.574-1.262l-.945-4.055 1.24-.29.911 3.906c.101.434.302.752.603.953.3.201.643.257 1.028.168.232-.055.45-.167.652-.336a1.5 1.5 0 0 0 .454-.662c.1-.271.107-.588.02-.95Zm5.944 1.533a2.537 2.537 0 0 1-1.47-.073c-.462-.172-.866-.476-1.21-.912-.341-.44-.593-1.004-.753-1.693-.16-.689-.183-1.305-.068-1.848.118-.544.349-.993.692-1.348.344-.354.771-.59 1.283-.71.396-.092.73-.1 1.001-.023.274.073.497.181.67.325.177.142.318.271.424.387l.074-.018-.736-3.158 1.24-.29 1.983 8.5-1.212.283-.231-.992-.104.024a3.37 3.37 0 0 1-.216.54 1.848 1.848 0 0 1-.466.59c-.213.187-.513.326-.9.416Zm.028-1.122c.356-.083.636-.248.839-.493.204-.25.33-.557.38-.925a3.356 3.356 0 0 0-.08-1.224 3.323 3.323 0 0 0-.463-1.117 1.753 1.753 0 0 0-.74-.646c-.29-.128-.616-.15-.979-.065-.373.087-.662.257-.866.509-.203.251-.33.56-.38.924a3.33 3.33 0 0 0 .078 1.176c.1.426.253.795.46 1.105.206.31.457.537.752.678.298.138.63.164.999.078ZM28.343 39.989a.75.75 0 0 0-.273 1.475l.273-1.475Zm1.224 1.523-.525.535a.75.75 0 0 0 1.263-.397l-.738-.138Zm1.942-2.713a.75.75 0 0 0-1.028-1.091l1.028 1.091Zm2.269-.141a4.25 4.25 0 0 1-3.005 5.205l.388 1.45a5.75 5.75 0 0 0 4.066-7.043l-1.45.388Zm-3.005 5.205a4.25 4.25 0 0 1-5.206-3.005l-1.448.388a5.75 5.75 0 0 0 7.042 4.066l-.388-1.449Zm-5.206-3.005a4.25 4.25 0 0 1 3.006-5.205l-.389-1.45a5.75 5.75 0 0 0-4.065 7.043l1.448-.388Zm3.006-5.205a4.25 4.25 0 0 1 5.205 3.005l1.449-.388a5.75 5.75 0 0 0-7.043-4.066l.389 1.449Zm-.367 5.073-.136.738h-.001a.138.138 0 0 0-.009-.002h.005a1.814 1.814 0 0 1 .266.095c.19.085.451.235.71.49l1.052-1.07a3.933 3.933 0 0 0-1.152-.79 3.271 3.271 0 0 0-.572-.193l-.015-.003-.006-.002h-.004l-.138.737Zm1.361.786.738.138v-.003l.003-.016a10.533 10.533 0 0 1 .312-1.16c.23-.686.54-1.342.89-1.672l-1.03-1.091c-.643.605-1.046 1.58-1.283 2.288a12.045 12.045 0 0 0-.343 1.259l-.017.084-.005.024a.3.3 0 0 1-.002.01l.737.139Zm3.089-11.871-.194-.724h-.002l.196.724Zm-7.524 2.637a.75.75 0 0 0 .56-1.392l-.56 1.392Zm11.485 4.208a.75.75 0 1 0 1.12.998l-1.12-.998ZM21.482 41.59a.75.75 0 0 0 .54-1.4l-.54 1.4Zm10.379-10.02a.75.75 0 0 0 1.466.314l-1.466-.314Zm-5.877-5.578a4.75 4.75 0 0 1 5.818 3.36l1.449-.389a6.25 6.25 0 0 0-7.655-4.42l.388 1.45Zm6.866 4.373a3.75 3.75 0 0 1 4.593 2.651l1.449-.388a5.25 5.25 0 0 0-6.43-3.712l.388 1.448Zm-.02.005.022-.006-.392-1.448-.022.006.392 1.448Zm-1.028-1.019a4.8 4.8 0 0 1 .093.423l1.478-.256a6.328 6.328 0 0 0-.122-.555l-1.45.388Zm-12.358 7.97a4.25 4.25 0 0 1 2.615-5.08l-.524-1.406a5.75 5.75 0 0 0-3.54 6.875l1.449-.389Zm2.615-5.08c.127-.047.256-.09.39-.125l-.388-1.449c-.18.048-.355.104-.526.168l.524 1.406Zm.477-.834a4.75 4.75 0 0 1 3.448-5.415l-.388-1.448a6.25 6.25 0 0 0-4.537 7.125l1.477-.263Zm-.087.71a4.228 4.228 0 0 1 2.683.16l.56-1.392a5.728 5.728 0 0 0-3.631-.218l.388 1.45Zm14.994.9a3.746 3.746 0 0 1-.826 3.468l1.12.998a5.246 5.246 0 0 0 1.154-4.855l-1.448.388Zm-15.42 7.171a4.243 4.243 0 0 1-2.58-2.867l-1.448.389a5.743 5.743 0 0 0 3.487 3.878l.54-1.4Zm9.872-10.414c.106.611.09 1.219-.034 1.796l1.466.314a6.216 6.216 0 0 0 .046-2.366l-1.478.256Z"/>
  <defs>
    <linearGradient id="a" x1="44.201" x2="53.459" y1="10.306" y2="50.013" gradientUnits="userSpaceOnUse">
      <stop stop-color="#F9A71E"/>
      <stop offset="1" stop-color="#F9A71E"/>
    </linearGradient>
    <linearGradient id="b" x1="89.504" x2="3.262" y1="4.727" y2="69.325" gradientUnits="userSpaceOnUse">
      <stop stop-color="#fff" stop-opacity=".4"/>
      <stop offset="1" stop-color="#fff" stop-opacity=".1"/>
    </linearGradient>
  </defs>
</svg>
