<svg xmlns="http://www.w3.org/2000/svg" width="105" height="14" fill="none" viewBox="0 0 105 14">
  <path fill="#42389E" d="M2.843 11.15H5.01c.424 0 .723-.086.895-.258.186-.186.278-.49.278-.915V3.913c0-.424-.092-.722-.278-.894-.172-.186-.47-.279-.895-.279H2.843c-.146 0-.218.073-.218.22v7.972c0 .145.072.218.218.218ZM.1 12.92V.97C.1.693.239.553.517.553h4.91c1.035 0 1.837.285 2.407.855.583.557.874 1.352.874 2.386v6.303c0 1.033-.291 1.835-.875 2.405-.57.557-1.371.835-2.405.835H.518c-.28 0-.418-.139-.418-.417Zm12.32.417h-1.908c-.238 0-.318-.139-.238-.417L13.414.97c.094-.278.293-.418.597-.418h2.645c.33 0 .53.14.596.418l3.141 11.949c.08.278 0 .417-.238.417h-1.909c-.146 0-.245-.026-.298-.08-.053-.066-.093-.178-.12-.337l-.556-2.187h-3.877l-.557 2.187c-.026.159-.073.271-.139.338-.053.053-.146.08-.278.08ZM15.305 2.96l-1.432 5.746h2.943L15.384 2.96h-.08Zm8.959 10.378h-1.69c-.278 0-.418-.139-.418-.417V.97c0-.278.14-.418.418-.418h4.732c1.034 0 1.842.285 2.425.855.584.57.875 1.372.875 2.406v1.55c0 1.498-.59 2.493-1.77 2.983v.08l2.128 4.433c.12.318.007.477-.338.477h-1.61c-.239 0-.411-.026-.517-.08-.106-.052-.193-.165-.259-.337l-1.988-4.295H24.92c-.159 0-.239.073-.239.219v4.076c0 .278-.139.417-.417.417Zm.636-6.74h1.948c.425 0 .736-.086.935-.258.199-.186.298-.477.298-.875v-1.55c0-.411-.1-.71-.298-.895-.199-.186-.51-.279-.934-.279H24.9c-.146 0-.219.073-.219.22V6.38c0 .145.073.218.22.218Zm12.085 6.74h-1.67c-.291 0-.437-.139-.437-.417V2.96c0-.147-.073-.22-.219-.22h-2.266c-.278 0-.418-.139-.418-.417V.97c0-.278.14-.418.418-.418h7.515c.278 0 .418.14.418.418v1.352c0 .278-.14.417-.418.417h-2.266c-.16 0-.239.073-.239.22v9.96c0 .278-.14.417-.418.417Zm4.54-3.26V9.68c0-.278.14-.418.418-.418h1.69c.278 0 .418.14.418.418v.159c0 .504.099.848.298 1.034.199.185.563.278 1.093.278h.935c.517 0 .874-.1 1.073-.298.212-.199.318-.57.318-1.113V9.5c0-.384-.159-.676-.477-.875-.305-.212-.689-.338-1.153-.377a14.32 14.32 0 0 1-1.51-.22 11.257 11.257 0 0 1-1.492-.437c-.464-.185-.855-.536-1.173-1.053-.305-.53-.457-1.206-.457-2.028v-.696c0-1.034.291-1.836.874-2.406.584-.57 1.392-.855 2.426-.855h1.988c1.047 0 1.862.285 2.446.855.583.57.874 1.372.874 2.406v.378c0 .278-.139.417-.417.417h-1.69c-.278 0-.418-.139-.418-.417v-.12c0-.516-.099-.868-.298-1.053-.199-.186-.563-.279-1.093-.279h-.776c-.543 0-.914.106-1.113.319-.186.198-.278.596-.278 1.192v.378c0 .623.543.981 1.63 1.074 1.127.093 2.127.318 3.002.676.464.199.848.556 1.153 1.073.318.504.477 1.153.477 1.949v.676c0 1.033-.291 1.835-.875 2.405-.583.57-1.391.855-2.425.855h-2.167c-1.034 0-1.842-.285-2.426-.855-.583-.57-.874-1.372-.874-2.405Zm14.992 3.26h-1.67c-.291 0-.437-.139-.437-.417V2.96c0-.147-.073-.22-.219-.22h-2.266c-.279 0-.418-.139-.418-.417V.97c0-.278.14-.418.418-.418h7.515c.278 0 .417.14.417.418v1.352c0 .278-.139.417-.417.417h-2.267c-.159 0-.238.073-.238.22v9.96c0 .278-.14.417-.418.417Zm6.966 0h-1.69c-.278 0-.418-.139-.418-.417V.97c0-.278.14-.418.418-.418h4.732c1.034 0 1.842.285 2.425.855.584.57.875 1.372.875 2.406v1.55c0 1.498-.59 2.493-1.77 2.983v.08l2.128 4.433c.12.318.007.477-.338.477h-1.61c-.239 0-.411-.026-.517-.08-.106-.052-.192-.165-.259-.337L65.47 8.625h-1.332c-.159 0-.239.073-.239.219v4.076c0 .278-.139.417-.417.417Zm.636-6.74h1.949c.424 0 .735-.086.934-.258.199-.186.298-.477.298-.875v-1.55c0-.411-.1-.71-.298-.895-.199-.186-.51-.279-.934-.279h-1.949c-.146 0-.218.073-.218.22V6.38c0 .145.072.218.218.218Zm15.048 6.74h-6.501c-.279 0-.418-.139-.418-.417V.97c0-.278.14-.418.418-.418h6.5c.266 0 .398.14.398.418v1.352c0 .278-.132.417-.397.417H75.01c-.16 0-.239.073-.239.22v2.584c0 .145.08.218.239.218h3.4c.278 0 .417.14.417.418v1.352c0 .278-.14.417-.418.417h-3.4c-.158 0-.238.073-.238.219v2.764c0 .145.08.218.239.218h4.155c.265 0 .398.14.398.418v1.352c0 .278-.133.417-.398.417Zm3.927 0h-1.909c-.239 0-.318-.139-.239-.417L84.087.97c.093-.278.291-.418.596-.418h2.644c.332 0 .53.14.597.418l3.141 11.949c.08.278 0 .417-.238.417h-1.909c-.146 0-.245-.026-.298-.08-.053-.066-.093-.178-.12-.337l-.556-2.187h-3.877l-.557 2.187c-.026.159-.073.271-.139.338-.053.053-.146.08-.278.08ZM85.975 2.96l-1.43 5.746h2.942L86.055 2.96h-.08ZM101.317.553h2.942c.279 0 .418.14.418.418V12.92c0 .278-.139.417-.418.417h-1.63c-.278 0-.418-.139-.418-.417V3.496h-.079l-2.028 6.66c-.08.265-.245.398-.497.398h-1.67c-.252 0-.418-.133-.497-.398l-2.068-6.68h-.08v9.444c0 .159-.026.271-.079.338-.053.053-.165.08-.338.08h-1.63c-.278 0-.418-.14-.418-.418V.97c0-.278.14-.418.418-.418h2.962c.186 0 .312.093.378.279l2.107 7.018h.12l2.127-7.018c.04-.186.166-.279.378-.279Z"/>
</svg>
