<svg width="213" height="99" viewBox="0 0 213 99" fill="none" xmlns="http://www.w3.org/2000/svg">
<rect x="6.50195" y="0.876709" width="206.509" height="78.629" rx="9" transform="rotate(4.7433 6.50195 0.876709)" fill="#42389E"/>
<path d="M51.541 68.3967L35.0975 67.0332L38.9437 20.647L55.5232 22.0217C60.189 22.4086 64.1285 23.6703 67.3418 25.8067C70.5562 27.9281 72.9261 30.7928 74.4513 34.4009C75.9917 38.0102 76.5622 42.2233 76.1628 47.0401C75.7621 51.872 74.5043 55.9486 72.3892 59.2701C70.2893 62.5928 67.4636 65.0419 63.9122 66.6174C60.3759 68.1943 56.2522 68.7873 51.541 68.3967ZM45.6015 59.4435L51.8301 59.9599C54.7293 60.2003 57.2104 59.8891 59.2736 59.0264C61.3532 58.1497 62.9814 56.6656 64.1583 54.5739C65.3515 52.4683 66.0915 49.6866 66.3782 46.2288C66.6624 42.8011 66.3888 39.9582 65.5574 37.6999C64.7411 35.443 63.3865 33.7191 61.4936 32.5283C59.6007 31.3375 57.2046 30.6219 54.3055 30.3815L48.0542 29.8631L45.6015 59.4435ZM91.1856 72.3453C88.9659 72.1612 87.0198 71.6122 85.3472 70.6981C83.6758 69.7689 82.3975 68.4999 81.5123 66.8909C80.6434 65.2681 80.3041 63.3091 80.4945 61.014C80.6547 59.0812 81.1441 57.4874 81.9628 56.2326C82.7814 54.9778 83.8354 54.0009 85.1248 53.3021C86.4143 52.6032 87.8535 52.1144 89.4426 51.8357C91.0468 51.5582 92.7164 51.4078 94.4516 51.3844C96.4924 51.3408 98.1395 51.2797 99.3927 51.2012C100.647 51.1075 101.569 50.8951 102.159 50.564C102.749 50.2328 103.075 49.6973 103.136 48.9574L103.148 48.8215C103.267 47.387 102.906 46.2396 102.065 45.3793C101.239 44.5203 100.003 44.0225 98.3573 43.886C96.6208 43.7421 95.2072 44.0125 94.1166 44.6975C93.0272 45.3673 92.2689 46.2623 91.8415 47.3823L82.9777 45.9176C83.606 43.8412 84.6484 42.088 86.1048 40.658C87.5626 39.2129 89.3753 38.1621 91.543 37.5057C93.7271 36.8354 96.2083 36.6154 98.9866 36.8458C100.919 37.0061 102.75 37.3859 104.479 37.9854C106.224 38.5861 107.743 39.4191 109.039 40.4843C110.349 41.5508 111.342 42.8646 112.018 44.4259C112.696 45.972 112.949 47.7794 112.778 49.848L110.832 73.313L101.681 72.5542L102.082 67.7299L101.81 67.7073C101.161 68.7482 100.334 69.6451 99.3289 70.3979C98.3251 71.1357 97.147 71.6841 95.7945 72.0433C94.4432 72.3874 92.9069 72.488 91.1856 72.3453ZM94.501 65.9154C95.9203 66.0331 97.1968 65.8577 98.3303 65.3892C99.465 64.9055 100.382 64.2062 101.081 63.2911C101.78 62.3761 102.181 61.307 102.282 60.084L102.588 56.3921C102.27 56.5633 101.84 56.7101 101.298 56.8324C100.772 56.9408 100.178 57.036 99.5178 57.1181C98.8585 57.1851 98.1998 57.2445 97.5418 57.2963C96.885 57.3331 96.2892 57.3673 95.7545 57.399C94.6082 57.4712 93.5973 57.6534 92.7216 57.9457C91.846 58.238 91.1485 58.6743 90.629 59.2545C90.1109 59.8197 89.8142 60.5553 89.7391 61.4613C89.6302 62.7749 90.0226 63.8185 90.9162 64.592C91.8263 65.3516 93.0212 65.7928 94.501 65.9154ZM118.318 73.9337L121.202 39.144L130.557 39.9196L130.053 45.9897L130.416 46.0197C131.229 43.9131 132.429 42.3706 134.015 41.3922C135.602 40.3988 137.37 39.9828 139.318 40.1444C139.801 40.1844 140.32 40.2578 140.873 40.3645C141.427 40.4713 141.911 40.595 142.325 40.7358L141.615 49.2973C141.173 49.1238 140.557 48.9511 139.765 48.779C138.973 48.607 138.246 48.4934 137.581 48.4383C136.162 48.3206 134.868 48.525 133.699 49.0514C132.547 49.564 131.601 50.337 130.861 51.3703C130.137 52.4049 129.716 53.6319 129.598 55.0513L127.966 74.7337L118.318 73.9337ZM167.549 42.9869L166.948 50.2348L145.997 48.4976L146.598 41.2497L167.549 42.9869ZM152.046 33.3091L161.694 34.1091L159.005 66.5433C158.931 67.4342 159.009 68.14 159.24 68.6609C159.472 69.1666 159.821 69.5376 160.288 69.774C160.77 70.0116 161.335 70.1573 161.985 70.2112C162.438 70.2487 162.894 70.2485 163.353 70.2106C163.814 70.1576 164.167 70.1184 164.412 70.0931L165.334 77.3989C164.838 77.5098 164.144 77.6271 163.252 77.7508C162.359 77.8896 161.284 77.9296 160.027 77.871C157.694 77.7688 155.681 77.2902 153.989 76.4353C152.311 75.5817 151.051 74.3673 150.208 72.7923C149.366 71.2173 149.047 69.2904 149.251 67.0116L152.046 33.3091Z" fill="white"/>
</svg>
