<svg xmlns="http://www.w3.org/2000/svg" width="33" height="24" fill="none" viewBox="0 0 33 24">
  <path fill="#42389E" d="M0 17.257V.449h10.07c5.903 1.055 8.24 5.729 8.778 6.805l.004.009c.53 1.06 2.12 1.65 2.12 1.65s.063.158 3.256.545c0 0 8.252 0 8.252 6.966 0 6.965-8.252 6.89-8.252 6.89s-3.037.13-4.846-.455c-1.057-.341-1.591-.769-2.574-1.211l2.574-2.877c1.624.553 2.66.729 4.846.681 0 0 4.164-.227 4.164-3.028 0-2.802-4.164-3.332-4.164-3.332l-4.316-.605c-2.032-.584-2.971-1.078-4.088-2.499-1.549-3.654-2.74-4.994-5.754-5.45H4.088v10.069L0 17.257Z"/>
  <path fill="#42389E" d="m0 22.86 4.088-4.09h5.982c3.7-.873 5.03-2.29 5.754-6.889 1.5 1.1 2.382 1.536 4.088 1.741-1.68 6.186-3.836 8.208-9.842 9.237H0ZM17.11 1.963l2.424 2.877s.832-1.06 3.86-1.211c3.03-.152 5.225 2.422 5.225 2.422l3.104-1.817S28.619-.157 23.395.146C18.17.449 17.11 1.963 17.11 1.963Z"/>
  <path stroke="#E7E8F4" stroke-width="1.657" d="M9.918.434v22.26"/>
</svg>
