<svg xmlns="http://www.w3.org/2000/svg" width="24" height="25" fill="none" viewBox="0 0 24 25">
  <path stroke="#42389E" stroke-linecap="round" stroke-linejoin="round" stroke-width="1.25" d="M20.11 14.489a1.944 1.944 0 1 0 .001-3.889 1.944 1.944 0 0 0 0 3.889Zm0-7.779a1.944 1.944 0 1 0 0-3.888 1.944 1.944 0 0 0 0 3.889Zm0 15.557a1.944 1.944 0 1 0 .001-3.89 1.944 1.944 0 0 0 0 3.89ZM4.555 14.489a1.944 1.944 0 1 0 0-3.889 1.944 1.944 0 0 0 0 3.889ZM6.5 12.544h11.667"/>
  <path stroke="#42389E" stroke-linecap="round" stroke-linejoin="round" stroke-width="1.25" d="M18.166 4.767h-3.889c-1.944 0-2.916.972-2.916 2.916v9.723c0 1.944.972 2.916 2.916 2.916h3.89"/>
</svg>
