<svg xmlns="http://www.w3.org/2000/svg" width="15" height="15" fill="none" viewBox="0 0 15 15">
  <path fill="#fff" fill-rule="evenodd" d="M7.317.842A6.926 6.926 0 0 0 .374 7.785c0 3.066 1.996 5.67 4.744 6.595.347.058.463-.144.463-.347v-1.186c-1.938.434-2.343-.925-2.343-.925-.318-.81-.781-1.013-.781-1.013-.637-.434.058-.434.058-.434.694.058 1.07.723 1.07.723.608 1.07 1.62.753 2.025.579.058-.463.231-.752.434-.926-1.533-.173-3.153-.78-3.153-3.442 0-.752.26-1.389.723-1.852-.058-.173-.318-.867.058-1.851 0 0 .578-.174 1.91.723a6.971 6.971 0 0 1 1.735-.231c.578 0 1.186.087 1.735.231 1.331-.897 1.91-.723 1.91-.723.376.955.144 1.649.058 1.851.434.492.723 1.1.723 1.852 0 2.661-1.62 3.24-3.182 3.413.26.203.463.637.463 1.273v1.91c0 .173.115.404.491.347a6.909 6.909 0 0 0 4.744-6.567A6.926 6.926 0 0 0 7.317.842Z" clip-rule="evenodd"/>
</svg>
