<svg xmlns="http://www.w3.org/2000/svg" width="139" height="85" fill="none" viewBox="0 0 139 85">
  <path fill="url(#a)" d="m25.17 4.703 101.984 38.474c5.943 2.242 8.943 8.877 6.701 14.82l-5.648 14.97c-2.242 5.942-8.876 8.942-14.819 6.7L2.048 37.663a1.5 1.5 0 0 1-.874-1.932l9.177-24.327c2.242-5.942 8.877-8.942 14.819-6.7Z"/>
  <path stroke="url(#b)" d="m25.17 4.703 101.984 38.474c5.943 2.242 8.943 8.877 6.701 14.82l-5.648 14.97c-2.242 5.942-8.876 8.942-14.819 6.7L2.048 37.663a1.5 1.5 0 0 1-.874-1.932l9.177-24.327c2.242-5.942 8.877-8.942 14.819-6.7Z"/>
  <path stroke="#fff" stroke-linecap="round" stroke-width="1.5" d="m32.109 17.475-.936-.353c-3.068-1.158-4.602-1.737-5.977-1.385a4.5 4.5 0 0 0-1.424.644c-1.172.8-1.75 2.334-2.908 5.402-1.157 3.068-1.736 4.602-1.385 5.977.13.508.348.99.644 1.424.8 1.172 2.334 1.75 5.402 2.908l3.743 1.412c3.068 1.157 4.602 1.736 5.977 1.385.509-.13.99-.348 1.424-.644.978-.668 1.542-1.846 2.375-4"/>
  <path stroke="#fff" stroke-linecap="round" stroke-linejoin="round" stroke-width="1.5" d="M32.333 22.547c-.455 1.206.119 2.539 1.281 2.977l4.421 1.668c1.047.395 2.227-.165 2.636-1.25.41-1.085-.116-2.288-1.163-2.683.624-1.3.067-2.968-1.318-3.49-1.21-.457-2.569.132-3.134 1.323-1.108-.298-2.295.32-2.723 1.455Zm-4.813 7.091 1.871.706"/>
  <path stroke="#fff" stroke-width="1.5" d="m27.397 32.798-1.412 3.742"/>
  <path stroke="#fff" stroke-linecap="round" stroke-width="1.5" d="m22.242 35.128 7.485 2.824"/>
  <path fill="#fff" d="M58.217 37.623c-.329.872-.771 1.562-1.327 2.069-.554.504-1.173.82-1.856.948-.68.126-1.37.057-2.075-.21-.707-.266-1.275-.671-1.705-1.216-.425-.546-.679-1.193-.761-1.94-.083-.748.04-1.557.368-2.426.329-.872.77-1.56 1.325-2.064.556-.507 1.173-.824 1.853-.95.682-.128 1.377-.059 2.084.208.705.266 1.27.672 1.695 1.218.43.544.685 1.19.768 1.938.083.745-.04 1.553-.369 2.425Zm-1.22-.46c.25-.664.354-1.265.31-1.8-.04-.538-.202-.994-.486-1.368a2.436 2.436 0 0 0-1.122-.829 2.444 2.444 0 0 0-1.393-.12c-.458.095-.881.33-1.269.706-.384.374-.701.893-.952 1.558-.25.664-.356 1.265-.316 1.803.044.536.206.991.486 1.367.282.374.657.65 1.128.827.468.176.93.217 1.388.122.462-.096.884-.33 1.268-.705.388-.376.707-.896.958-1.561Zm.254 7.383 3.177-8.42 1.164.439-.375.992.1.038c.117-.102.273-.212.466-.33a1.82 1.82 0 0 1 .708-.234c.28-.04.609.011.989.155.494.186.888.478 1.182.874.294.396.462.871.506 1.425.045.554-.056 1.163-.306 1.825-.25.661-.574 1.187-.973 1.577-.399.388-.838.636-1.32.746-.48.107-.968.067-1.463-.12-.372-.14-.653-.317-.842-.531a1.848 1.848 0 0 1-.385-.646 3.545 3.545 0 0 1-.138-.563l-.072-.027-1.226 3.25-1.192-.45Zm3.19-4.918c-.163.43-.243.832-.24 1.203.002.371.087.694.255.966.168.27.424.47.767.6.356.134.69.151 1 .053.311-.101.59-.292.835-.573.248-.28.45-.624.604-1.034a3.24 3.24 0 0 0 .227-1.157 1.781 1.781 0 0 0-.255-.966c-.169-.277-.432-.483-.791-.618-.346-.13-.672-.151-.978-.064-.304.09-.577.27-.82.543a3.323 3.323 0 0 0-.604 1.047Zm7.199 6.355c-.604-.228-1.075-.553-1.413-.975a2.804 2.804 0 0 1-.592-1.475c-.055-.562.037-1.16.277-1.795.236-.628.562-1.136.976-1.527a2.914 2.914 0 0 1 1.412-.747c.526-.108 1.074-.055 1.643.16.346.13.659.314.94.55a2.6 2.6 0 0 1 .67.868c.166.342.25.736.25 1.183.003.444-.1.944-.31 1.5l-.16.422-4.868-1.836.337-.893 3.7 1.395c.119-.313.16-.615.123-.905a1.547 1.547 0 0 0-.32-.781 1.606 1.606 0 0 0-.726-.515 1.664 1.664 0 0 0-.97-.084c-.308.069-.58.21-.815.421a1.98 1.98 0 0 0-.52.774l-.263.698c-.154.41-.214.785-.178 1.126.037.342.158.638.361.888.205.247.48.436.83.568.225.085.443.13.653.137a1.37 1.37 0 0 0 1.087-.478l1.052.629a2.184 2.184 0 0 1-.816.69 2.52 2.52 0 0 1-1.091.248 3.49 3.49 0 0 1-1.27-.246Zm6.56-1.82L72.83 47.8l-1.192-.45 2.31-6.124 1.144.432-.376.997.076.028c.263-.27.582-.448.957-.531.377-.083.795-.037 1.255.136.417.158.75.383.997.677.249.291.395.64.438 1.049.043.408-.03.864-.22 1.37l-1.47 3.895-1.192-.45 1.415-3.752c.168-.444.183-.834.046-1.171-.136-.34-.406-.586-.81-.738a1.595 1.595 0 0 0-.805-.1 1.38 1.38 0 0 0-.705.336c-.209.183-.374.436-.497.76Zm13.939 2.535c.1-.394.034-.752-.196-1.076-.229-.326-.577-.578-1.045-.754a2.32 2.32 0 0 0-.93-.169 1.43 1.43 0 0 0-.732.216 1.09 1.09 0 0 0-.433.543.973.973 0 0 0-.054.553c.04.176.117.34.23.492.116.15.248.29.397.419.15.126.297.24.441.34l.72.507c.236.163.47.35.703.562.233.212.433.451.6.718.166.266.271.558.316.875.047.319 0 .661-.138 1.028a2.319 2.319 0 0 1-.823 1.096c-.372.27-.823.423-1.353.46-.528.038-1.11-.063-1.748-.304-.612-.23-1.104-.527-1.477-.89a2.609 2.609 0 0 1-.738-1.22c-.117-.455-.096-.933.063-1.434l1.236.466c-.087.304-.084.586.009.846.097.258.259.485.486.68.23.193.504.35.82.468.349.132.679.194.991.188a1.66 1.66 0 0 0 .82-.22c.233-.14.399-.343.499-.608.091-.242.097-.466.017-.673a1.638 1.638 0 0 0-.41-.592 5.79 5.79 0 0 0-.685-.563l-.865-.627c-.587-.425-1.007-.882-1.259-1.372-.25-.49-.267-1.018-.053-1.587.178-.47.46-.833.848-1.087a2.687 2.687 0 0 1 1.345-.427 3.794 3.794 0 0 1 1.586.262c.553.208 1.004.49 1.354.843.352.354.586.748.702 1.18.117.43.099.866-.056 1.309l-1.188-.448Zm2.938 8.127c-.574-.217-1.026-.538-1.355-.962a2.844 2.844 0 0 1-.58-1.48c-.058-.563.033-1.16.271-1.793.24-.635.568-1.146.984-1.533.416-.386.887-.63 1.415-.732.527-.102 1.078-.044 1.652.172.574.217 1.025.537 1.354.962.329.424.522.92.579 1.484.057.565-.035 1.166-.274 1.8-.239.633-.566 1.142-.98 1.526a2.844 2.844 0 0 1-1.414.728c-.528.102-1.078.044-1.652-.172Zm.381-1c.372.14.718.159 1.037.054a1.85 1.85 0 0 0 .838-.58 3.34 3.34 0 0 0 .587-1.013c.147-.391.223-.773.227-1.145a1.875 1.875 0 0 0-.243-.998c-.17-.291-.44-.507-.812-.648-.375-.141-.724-.159-1.046-.052-.32.107-.602.302-.846.587a3.4 3.4 0 0 0-.581 1.01 3.408 3.408 0 0 0-.232 1.147c-.004.372.08.702.25.991.172.29.446.506.821.647Zm8.688 1.379 1.353-3.585 1.196.452-2.311 6.124-1.172-.442.4-1.061-.064-.024a2.043 2.043 0 0 1-.986.562c-.39.099-.814.061-1.274-.112a2.214 2.214 0 0 1-.947-.653 1.946 1.946 0 0 1-.416-1.046c-.04-.407.034-.863.225-1.368l1.47-3.895 1.191.45-1.415 3.751c-.158.418-.167.794-.03 1.128.139.334.392.571.762.71.223.085.466.113.729.084a1.5 1.5 0 0 0 .745-.297c.234-.17.416-.429.544-.778Zm1.84 3.595 2.31-6.124 1.153.435-.367.973.064.023a1.58 1.58 0 0 1 .883-.554 1.804 1.804 0 0 1 1.073.077 5.248 5.248 0 0 1 .496.218l-.43 1.14a2.363 2.363 0 0 0-.239-.14 2.601 2.601 0 0 0-.356-.166 1.664 1.664 0 0 0-.821-.104 1.425 1.425 0 0 0-1.163.932l-1.411 3.74-1.192-.45Zm6.623 2.64c-.593-.224-1.053-.55-1.379-.98a2.848 2.848 0 0 1-.558-1.491c-.05-.562.042-1.15.273-1.764.235-.622.559-1.127.972-1.514.415-.39.885-.64 1.412-.748.526-.108 1.078-.053 1.655.165.465.175.847.418 1.146.728a2.323 2.323 0 0 1 .606 2.283l-1.161-.438a1.484 1.484 0 0 0-.158-.907c-.148-.293-.412-.51-.792-.654a1.584 1.584 0 0 0-.973-.066c-.312.08-.598.254-.857.523-.259.267-.471.618-.635 1.054-.168.447-.246.858-.233 1.233.013.376.11.7.29.97.183.273.443.473.78.6.226.085.447.121.661.108.218-.015.419-.077.603-.187a1.46 1.46 0 0 0 .481-.465l1.16.438c-.192.38-.454.684-.786.914-.333.23-.714.366-1.142.407-.426.043-.881-.027-1.365-.21Zm6.43 2.425c-.603-.227-1.074-.552-1.413-.974a2.803 2.803 0 0 1-.591-1.476c-.056-.561.037-1.16.276-1.795.237-.627.562-1.136.977-1.526a2.91 2.91 0 0 1 1.411-.747c.527-.108 1.075-.055 1.643.16a3.2 3.2 0 0 1 .94.55c.282.236.505.526.671.868.165.341.249.736.25 1.183.003.444-.101.944-.311 1.5l-.159.422-4.868-1.837.337-.893 3.7 1.396c.118-.314.159-.615.123-.905a1.546 1.546 0 0 0-.321-.782 1.606 1.606 0 0 0-.725-.515 1.666 1.666 0 0 0-.971-.084c-.308.07-.58.21-.814.422-.232.21-.405.468-.52.774l-.263.698c-.155.409-.214.784-.179 1.126.038.342.158.638.362.887.204.248.48.437.829.568.225.085.443.131.654.138a1.368 1.368 0 0 0 1.086-.478l1.052.629a2.187 2.187 0 0 1-.816.69c-.324.16-.688.242-1.091.248a3.496 3.496 0 0 1-1.269-.247Z"/>
  <defs>
    <linearGradient id="a" x1="76.339" x2="62.22" y1="23.473" y2="60.898" gradientUnits="userSpaceOnUse">
      <stop stop-color="#F9A71E"/>
      <stop offset="1" stop-color="#F9A71E"/>
    </linearGradient>
    <linearGradient id="b" x1="12.438" x2="97.331" y1="4.455" y2="120.999" gradientUnits="userSpaceOnUse">
      <stop stop-color="#fff" stop-opacity=".4"/>
      <stop offset="1" stop-color="#fff" stop-opacity=".1"/>
    </linearGradient>
  </defs>
</svg>
