<svg xmlns="http://www.w3.org/2000/svg" width="772" height="188" fill="none" viewBox="0 0 772 188">
  <path fill="#21263C" d="M123.896 26V7.842h11.81V10.6h-8.521v4.93h7.909v2.757h-7.909v4.957h8.592V26h-11.881Zm18.147-13.618 2.749 5.027 2.793-5.027h3.395l-4.105 6.809L151.051 26h-3.378l-2.881-4.903L141.937 26h-3.405l4.15-6.81-4.043-6.809h3.404Zm11.919 18.725V12.382h3.157v2.252h.186c.165-.331.399-.683.7-1.056.302-.378.71-.7 1.224-.966.514-.272 1.17-.408 1.968-.408 1.052 0 2.001.27 2.846.807.851.532 1.525 1.321 2.022 2.367.502 1.04.753 2.317.753 3.83 0 1.496-.245 2.767-.736 3.813-.49 1.046-1.158 1.844-2.003 2.394-.846.55-1.803.824-2.873.824-.78 0-1.428-.13-1.942-.39s-.928-.573-1.241-.94a6.081 6.081 0 0 1-.718-1.055h-.133v7.253h-3.21Zm3.148-11.916c0 .88.124 1.652.372 2.314.254.662.618 1.179 1.091 1.551.478.367 1.058.55 1.737.55.71 0 1.304-.189 1.783-.567.478-.385.839-.908 1.081-1.57.248-.668.373-1.427.373-2.278 0-.845-.122-1.596-.364-2.252-.242-.656-.603-1.17-1.082-1.543-.478-.372-1.075-.559-1.791-.559-.685 0-1.267.18-1.746.541-.479.36-.842.866-1.091 1.516-.242.65-.363 1.416-.363 2.297Zm16.166-11.349V26h-3.21V7.842h3.21Zm9.74 18.424c-1.33 0-2.483-.293-3.458-.878-.975-.585-1.732-1.404-2.27-2.456-.532-1.052-.798-2.281-.798-3.688s.266-2.64.798-3.697c.538-1.058 1.295-1.88 2.27-2.465.975-.585 2.128-.878 3.458-.878s2.482.293 3.458.878c.975.585 1.728 1.407 2.26 2.465.538 1.058.807 2.29.807 3.697s-.269 2.636-.807 3.688c-.532 1.052-1.285 1.871-2.26 2.456-.976.585-2.128.878-3.458.878Zm.018-2.571c.721 0 1.324-.198 1.808-.594.485-.402.845-.94 1.082-1.614.242-.674.363-1.424.363-2.252 0-.833-.121-1.587-.363-2.26-.237-.68-.597-1.221-1.082-1.623-.484-.402-1.087-.603-1.808-.603-.739 0-1.354.2-1.845.603-.484.402-.848.942-1.09 1.622-.237.674-.355 1.428-.355 2.261 0 .828.118 1.578.355 2.252.242.674.606 1.212 1.09 1.614.491.396 1.106.594 1.845.594ZM192.765 26V12.382h3.112v2.27h.142c.248-.787.673-1.393 1.276-1.818a3.516 3.516 0 0 1 2.084-.647c.177 0 .375.008.594.026.225.012.411.033.559.062v2.953a3.373 3.373 0 0 0-.648-.124 5.94 5.94 0 0 0-.842-.063c-.585 0-1.111.127-1.578.382a2.792 2.792 0 0 0-1.091 1.037c-.266.443-.399.955-.399 1.534V26h-3.209Zm15.866.266c-1.365 0-2.544-.284-3.537-.851a5.766 5.766 0 0 1-2.279-2.43c-.532-1.052-.798-2.29-.798-3.714 0-1.401.266-2.63.798-3.689.538-1.064 1.289-1.891 2.252-2.482.964-.597 2.096-.896 3.396-.896.839 0 1.631.136 2.376.408.751.266 1.413.68 1.986 1.241.579.562 1.035 1.277 1.366 2.146.331.863.496 1.891.496 3.085v.985h-11.162v-2.164h8.085c-.005-.614-.138-1.161-.399-1.64a2.899 2.899 0 0 0-1.09-1.144c-.461-.278-.999-.417-1.614-.417-.656 0-1.232.16-1.729.48a3.303 3.303 0 0 0-1.161 1.24 3.572 3.572 0 0 0-.417 1.676v1.889c0 .792.145 1.471.435 2.039.289.562.694.993 1.214 1.294.52.296 1.129.444 1.827.444.467 0 .889-.065 1.268-.195.378-.136.706-.334.984-.594.278-.26.487-.583.629-.967l2.997.337a4.67 4.67 0 0 1-1.082 2.075c-.526.585-1.2 1.04-2.021 1.365-.822.32-1.762.479-2.82.479Zm32.33-9.345c0 1.957-.366 3.632-1.099 5.027-.727 1.39-1.72 2.453-2.979 3.192-1.254.739-2.675 1.108-4.265 1.108-1.59 0-3.015-.37-4.274-1.108-1.253-.745-2.246-1.812-2.979-3.2-.727-1.396-1.09-3.068-1.09-5.019 0-1.956.363-3.63 1.09-5.018.733-1.395 1.726-2.462 2.979-3.2 1.259-.74 2.684-1.11 4.274-1.11 1.59 0 3.011.37 4.265 1.11 1.259.738 2.252 1.805 2.979 3.2.733 1.389 1.099 3.062 1.099 5.018Zm-3.307 0c0-1.377-.216-2.539-.647-3.484-.426-.952-1.017-1.67-1.774-2.155-.756-.49-1.628-.736-2.615-.736-.987 0-1.859.245-2.616.736-.756.485-1.35 1.203-1.782 2.155-.425.945-.638 2.107-.638 3.484 0 1.377.213 2.542.638 3.493.432.946 1.026 1.664 1.782 2.155.757.485 1.629.727 2.616.727.987 0 1.859-.242 2.615-.727.757-.49 1.348-1.209 1.774-2.155.431-.951.647-2.116.647-3.493Zm15.454 3.351v-7.89h3.21V26h-3.112v-2.42h-.142a4.095 4.095 0 0 1-1.516 1.87c-.698.485-1.558.727-2.58.727-.893 0-1.682-.198-2.368-.594-.679-.402-1.211-.984-1.595-1.746-.385-.769-.577-1.697-.577-2.784v-8.671h3.21v8.174c0 .863.236 1.549.709 2.057s1.094.763 1.862.763c.473 0 .931-.116 1.374-.346.444-.23.807-.574 1.091-1.029.289-.46.434-1.037.434-1.729Zm7.01 5.728V12.382h3.112v2.27h.142c.248-.787.673-1.393 1.276-1.818a3.516 3.516 0 0 1 2.084-.647c.177 0 .375.008.594.026a4.1 4.1 0 0 1 .558.062v2.953a3.36 3.36 0 0 0-.647-.124 5.94 5.94 0 0 0-.842-.063c-.585 0-1.111.127-1.578.382a2.792 2.792 0 0 0-1.091 1.037c-.266.443-.399.955-.399 1.534V26h-3.209ZM277.35 7.842h4.026L286.766 21h.213l5.391-13.158h4.025V26h-3.157V13.525h-.168l-5.018 12.422h-2.359l-5.018-12.448h-.168V26h-3.157V7.842Zm31.664 12.43v-7.89h3.21V26h-3.112v-2.42h-.142a4.095 4.095 0 0 1-1.516 1.87c-.698.485-1.558.727-2.58.727-.893 0-1.682-.198-2.368-.594-.679-.402-1.211-.984-1.595-1.746-.385-.769-.577-1.697-.577-2.784v-8.671h3.21v8.174c0 .863.236 1.549.709 2.057s1.094.763 1.862.763c.473 0 .931-.116 1.374-.346.444-.23.807-.574 1.091-1.029.289-.46.434-1.037.434-1.729Zm10.219-12.43V26h-3.209V7.842h3.209Zm10.6 4.54v2.482h-7.829v-2.482h7.829Zm-5.896-3.263h3.21v12.785c0 .431.065.762.195.993.136.224.313.378.532.46.219.084.461.125.727.125.201 0 .384-.015.55-.044.171-.03.301-.056.39-.08l.541 2.509a7.24 7.24 0 0 1-.736.195 6.048 6.048 0 0 1-1.153.124c-.804.024-1.528-.097-2.172-.363a3.38 3.38 0 0 1-1.534-1.26c-.372-.567-.556-1.276-.55-2.127V9.119ZM333.017 26V12.382h3.209V26h-3.209Zm1.613-15.551c-.508 0-.945-.169-1.312-.506-.366-.342-.549-.753-.549-1.232 0-.485.183-.896.549-1.232a1.855 1.855 0 0 1 1.312-.515c.515 0 .952.172 1.313.515.366.336.549.747.549 1.232 0 .479-.183.89-.549 1.232a1.853 1.853 0 0 1-1.313.506Zm13.651 6.667v2.642h-8.175v-2.642h8.175Zm19.559-3.147h-3.316a4.119 4.119 0 0 0-.523-1.446 3.874 3.874 0 0 0-2.243-1.746 5.051 5.051 0 0 0-1.552-.23c-.987 0-1.862.247-2.624.744-.763.49-1.36 1.212-1.791 2.163-.432.946-.647 2.102-.647 3.467 0 1.39.215 2.56.647 3.511.437.946 1.034 1.661 1.791 2.146.762.478 1.634.718 2.615.718.544 0 1.053-.071 1.525-.213a4.17 4.17 0 0 0 1.286-.647 3.942 3.942 0 0 0 1.516-2.465l3.316.018a7.133 7.133 0 0 1-.807 2.43 7.166 7.166 0 0 1-1.605 2.003 7.396 7.396 0 0 1-2.323 1.348c-.886.319-1.87.478-2.952.478-1.596 0-3.02-.37-4.273-1.108-1.254-.739-2.241-1.806-2.962-3.2-.721-1.396-1.081-3.068-1.081-5.019 0-1.956.363-3.63 1.09-5.018.727-1.395 1.717-2.462 2.97-3.2 1.253-.74 2.672-1.11 4.256-1.11 1.011 0 1.951.143 2.82.426a7.22 7.22 0 0 1 2.322 1.25 6.644 6.644 0 0 1 1.676 2.004c.443.786.733 1.685.869 2.696Zm6.579-6.127V26h-3.209V7.842h3.209Zm9.74 18.424c-1.329 0-2.482-.293-3.457-.878-.976-.585-1.732-1.404-2.27-2.456-.532-1.052-.798-2.281-.798-3.688s.266-2.64.798-3.697c.538-1.058 1.294-1.88 2.27-2.465.975-.585 2.128-.878 3.457-.878 1.33 0 2.483.293 3.458.878.976.585 1.729 1.407 2.261 2.465.538 1.058.807 2.29.807 3.697s-.269 2.636-.807 3.688c-.532 1.052-1.285 1.871-2.261 2.456-.975.585-2.128.878-3.458.878Zm.018-2.571c.721 0 1.324-.198 1.809-.594.485-.402.845-.94 1.082-1.614.242-.674.363-1.424.363-2.252 0-.833-.121-1.587-.363-2.26-.237-.68-.597-1.221-1.082-1.623-.485-.402-1.088-.603-1.809-.603-.739 0-1.353.2-1.844.603-.485.402-.848.942-1.091 1.622-.236.674-.354 1.428-.354 2.261 0 .828.118 1.578.354 2.252.243.674.606 1.212 1.091 1.614.491.396 1.105.594 1.844.594Zm18.411-3.423v-7.89h3.21V26h-3.112v-2.42h-.142a4.095 4.095 0 0 1-1.516 1.87c-.697.485-1.557.727-2.58.727-.893 0-1.682-.198-2.367-.594-.68-.402-1.212-.984-1.596-1.746-.384-.769-.577-1.697-.577-2.784v-8.671h3.21v8.174c0 .863.236 1.549.709 2.057s1.094.763 1.862.763c.473 0 .931-.116 1.374-.346.444-.23.807-.574 1.091-1.029.29-.46.434-1.037.434-1.729Zm12.064 5.967c-1.07 0-2.028-.274-2.873-.824-.845-.55-1.513-1.348-2.004-2.394-.49-1.046-.736-2.317-.736-3.813 0-1.513.248-2.79.745-3.83.502-1.046 1.179-1.835 2.03-2.367a5.218 5.218 0 0 1 2.846-.807c.798 0 1.454.136 1.969.408.514.266.922.588 1.223.966.302.373.535.725.701 1.056h.133V7.842h3.218V26h-3.156v-2.146h-.195a5.482 5.482 0 0 1-.719 1.056c-.313.366-.727.68-1.241.94-.514.26-1.161.39-1.941.39Zm.895-2.633c.68 0 1.259-.183 1.738-.55.479-.372.842-.89 1.09-1.551.249-.662.373-1.433.373-2.314 0-.88-.124-1.646-.373-2.297-.242-.65-.603-1.155-1.081-1.516-.473-.36-1.055-.54-1.747-.54-.715 0-1.312.186-1.791.558-.479.372-.839.887-1.082 1.543-.242.656-.363 1.407-.363 2.252 0 .85.121 1.61.363 2.278.249.662.612 1.185 1.091 1.57.485.378 1.079.567 1.782.567ZM432.658 26V7.842h6.809c1.395 0 2.565.26 3.511.78.952.52 1.67 1.236 2.154 2.146.491.904.736 1.933.736 3.085 0 1.165-.245 2.2-.736 3.103-.49.905-1.214 1.617-2.172 2.137-.957.515-2.136.772-3.537.772h-4.513V17.16h4.069c.816 0 1.484-.141 2.004-.425.52-.284.904-.674 1.153-1.17.254-.497.381-1.067.381-1.712 0-.644-.127-1.211-.381-1.702a2.6 2.6 0 0 0-1.162-1.144c-.52-.277-1.191-.416-2.012-.416h-3.015V26h-3.289Zm22.17.266c-1.33 0-2.482-.293-3.458-.878-.975-.585-1.731-1.404-2.269-2.456-.532-1.052-.798-2.281-.798-3.688s.266-2.64.798-3.697c.538-1.058 1.294-1.88 2.269-2.465.976-.585 2.128-.878 3.458-.878s2.483.293 3.458.878c.975.585 1.729 1.407 2.261 2.465.538 1.058.807 2.29.807 3.697s-.269 2.636-.807 3.688c-.532 1.052-1.286 1.871-2.261 2.456-.975.585-2.128.878-3.458.878Zm.018-2.571c.721 0 1.324-.198 1.809-.594.484-.402.845-.94 1.081-1.614.243-.674.364-1.424.364-2.252 0-.833-.121-1.587-.364-2.26-.236-.68-.597-1.221-1.081-1.623-.485-.402-1.088-.603-1.809-.603-.739 0-1.354.2-1.844.603-.485.402-.848.942-1.091 1.622-.236.674-.354 1.428-.354 2.261 0 .828.118 1.578.354 2.252.243.674.606 1.212 1.091 1.614.49.396 1.105.594 1.844.594ZM466.998 26l-3.848-13.618h3.271l2.394 9.575h.124l2.447-9.575h3.237l2.447 9.522h.133l2.358-9.522h3.281L478.985 26h-3.343l-2.553-9.203h-.186L470.349 26h-3.351Zm24.223.266c-1.366 0-2.545-.284-3.538-.851a5.763 5.763 0 0 1-2.278-2.43c-.532-1.052-.798-2.29-.798-3.714 0-1.401.266-2.63.798-3.689.537-1.064 1.288-1.891 2.252-2.482.963-.597 2.095-.896 3.395-.896.84 0 1.632.136 2.376.408.751.266 1.413.68 1.986 1.241.58.562 1.035 1.277 1.366 2.146.331.863.496 1.891.496 3.085v.985h-11.162v-2.164h8.086c-.006-.614-.139-1.161-.399-1.64a2.901 2.901 0 0 0-1.091-1.144c-.461-.278-.999-.417-1.613-.417-.656 0-1.233.16-1.729.48a3.298 3.298 0 0 0-1.162 1.24 3.56 3.56 0 0 0-.416 1.676v1.889c0 .792.144 1.471.434 2.039.29.562.694.993 1.215 1.294.52.296 1.129.444 1.826.444.467 0 .89-.065 1.268-.195.378-.136.706-.334.984-.594.278-.26.488-.583.63-.967l2.996.337a4.669 4.669 0 0 1-1.081 2.075c-.526.585-1.2 1.04-2.022 1.365-.821.32-1.761.479-2.819.479Zm9.27-.266V12.382h3.112v2.27h.142c.248-.787.674-1.393 1.277-1.818a3.51 3.51 0 0 1 2.083-.647c.177 0 .375.008.594.026.225.012.411.033.559.062v2.953a3.376 3.376 0 0 0-.647-.124 5.965 5.965 0 0 0-.843-.063c-.585 0-1.111.127-1.578.382a2.783 2.783 0 0 0-1.09 1.037c-.266.443-.399.955-.399 1.534V26h-3.21Zm15.867.266c-1.366 0-2.545-.284-3.538-.851a5.766 5.766 0 0 1-2.279-2.43c-.532-1.052-.798-2.29-.798-3.714 0-1.401.266-2.63.798-3.689.538-1.064 1.289-1.891 2.252-2.482.964-.597 2.096-.896 3.396-.896a6.87 6.87 0 0 1 2.376.408c.751.266 1.413.68 1.986 1.241.58.562 1.035 1.277 1.366 2.146.331.863.496 1.891.496 3.085v.985h-11.162v-2.164h8.086c-.006-.614-.139-1.161-.399-1.64a2.901 2.901 0 0 0-1.091-1.144c-.461-.278-.999-.417-1.614-.417-.656 0-1.232.16-1.728.48a3.298 3.298 0 0 0-1.162 1.24 3.572 3.572 0 0 0-.417 1.676v1.889c0 .792.145 1.471.435 2.039a3.09 3.09 0 0 0 1.215 1.294c.52.296 1.128.444 1.826.444.467 0 .89-.065 1.268-.195.378-.136.706-.334.984-.594a2.46 2.46 0 0 0 .629-.967l2.997.337a4.669 4.669 0 0 1-1.081 2.075c-.527.585-1.2 1.04-2.022 1.365-.822.32-1.761.479-2.819.479Zm14.324-.027c-1.07 0-2.028-.274-2.873-.824-.845-.55-1.513-1.348-2.004-2.394-.49-1.046-.736-2.317-.736-3.813 0-1.513.249-2.79.745-3.83.502-1.046 1.179-1.835 2.03-2.367a5.22 5.22 0 0 1 2.846-.807c.798 0 1.455.136 1.969.408.514.266.922.588 1.223.966.302.373.535.725.701 1.056h.133V7.842h3.218V26h-3.156v-2.146h-.195a5.52 5.52 0 0 1-.718 1.056c-.314.366-.727.68-1.242.94-.514.26-1.161.39-1.941.39Zm.895-2.633c.68 0 1.259-.183 1.738-.55.479-.372.842-.89 1.09-1.551.249-.662.373-1.433.373-2.314 0-.88-.124-1.646-.373-2.297-.242-.65-.603-1.155-1.081-1.516-.473-.36-1.055-.54-1.747-.54-.715 0-1.312.186-1.791.558-.479.372-.839.887-1.082 1.543-.242.656-.363 1.407-.363 2.252 0 .85.121 1.61.363 2.278.249.662.612 1.185 1.091 1.57.485.378 1.079.567 1.782.567Zm26.979-10.772c-.083-.775-.432-1.377-1.046-1.809-.609-.431-1.401-.647-2.376-.647-.686 0-1.274.103-1.765.31-.49.207-.866.488-1.126.842a2.05 2.05 0 0 0-.399 1.215c0 .378.086.706.257.984.178.278.417.514.718.71.302.189.636.348 1.002.478.367.13.736.24 1.109.328l1.702.426a11.7 11.7 0 0 1 1.977.647 6.968 6.968 0 0 1 1.711 1.029 4.55 4.55 0 0 1 1.206 1.498c.296.585.443 1.27.443 2.057 0 1.064-.272 2-.815 2.81-.544.804-1.33 1.434-2.359 1.889-1.022.45-2.261.674-3.715.674-1.412 0-2.639-.219-3.679-.656-1.035-.438-1.844-1.076-2.429-1.915-.58-.84-.893-1.862-.94-3.068h3.236c.047.632.242 1.159.585 1.578.343.42.789.733 1.339.94.555.207 1.176.31 1.862.31.715 0 1.341-.106 1.879-.319.544-.219.97-.52 1.277-.904.307-.39.464-.846.47-1.366-.006-.473-.145-.863-.417-1.17-.272-.313-.653-.573-1.143-.78a11.049 11.049 0 0 0-1.703-.568l-2.066-.532c-1.495-.384-2.677-.966-3.546-1.746-.863-.786-1.295-1.83-1.295-3.13 0-1.07.29-2.007.869-2.81.586-.804 1.381-1.428 2.385-1.871 1.005-.45 2.143-.674 3.414-.674 1.288 0 2.417.224 3.387.674.975.443 1.74 1.06 2.296 1.853.556.786.842 1.69.86 2.713h-3.165ZM571.2 26.266c-1.33 0-2.483-.293-3.458-.878-.975-.585-1.732-1.404-2.27-2.456-.532-1.052-.798-2.281-.798-3.688s.266-2.64.798-3.697c.538-1.058 1.295-1.88 2.27-2.465.975-.585 2.128-.878 3.458-.878s2.482.293 3.457.878c.976.585 1.729 1.407 2.261 2.465.538 1.058.807 2.29.807 3.697s-.269 2.636-.807 3.688c-.532 1.052-1.285 1.871-2.261 2.456-.975.585-2.127.878-3.457.878Zm.017-2.571c.722 0 1.324-.198 1.809-.594.485-.402.845-.94 1.082-1.614.242-.674.363-1.424.363-2.252 0-.833-.121-1.587-.363-2.26-.237-.68-.597-1.221-1.082-1.623-.485-.402-1.087-.603-1.809-.603-.738 0-1.353.2-1.844.603-.484.402-.848.942-1.09 1.622-.237.674-.355 1.428-.355 2.261 0 .828.118 1.578.355 2.252.242.674.606 1.212 1.09 1.614.491.396 1.106.594 1.844.594Zm12.941-15.853V26h-3.209V7.842h3.209Zm12.48 12.43v-7.89h3.209V26h-3.112v-2.42h-.141a4.097 4.097 0 0 1-1.517 1.87c-.697.485-1.557.727-2.58.727-.892 0-1.681-.198-2.367-.594-.68-.402-1.212-.984-1.596-1.746-.384-.769-.576-1.697-.576-2.784v-8.671h3.21v8.174c0 .863.236 1.549.709 2.057s1.093.763 1.862.763c.473 0 .931-.116 1.374-.346a2.79 2.79 0 0 0 1.09-1.029c.29-.46.435-1.037.435-1.729Zm13.81-7.89v2.482h-7.829v-2.482h7.829Zm-5.896-3.263h3.209v12.785c0 .431.065.762.195.993.136.224.314.378.532.46.219.084.461.125.727.125.201 0 .384-.015.55-.044.171-.03.301-.056.39-.08l.541 2.509a7.24 7.24 0 0 1-.736.195 6.02 6.02 0 0 1-1.153.124c-.803.024-1.528-.097-2.172-.363a3.385 3.385 0 0 1-1.534-1.26c-.372-.567-.555-1.276-.549-2.127V9.119ZM613.631 26V12.382h3.21V26h-3.21Zm1.614-15.551c-.508 0-.946-.169-1.312-.506-.367-.342-.55-.753-.55-1.232 0-.485.183-.896.55-1.232a1.854 1.854 0 0 1 1.312-.515c.514 0 .952.172 1.312.515.367.336.55.747.55 1.232 0 .479-.183.89-.55 1.232-.36.337-.798.506-1.312.506Zm11.336 15.817c-1.33 0-2.483-.293-3.458-.878-.975-.585-1.732-1.404-2.27-2.456-.532-1.052-.798-2.281-.798-3.688s.266-2.64.798-3.697c.538-1.058 1.295-1.88 2.27-2.465.975-.585 2.128-.878 3.458-.878s2.482.293 3.458.878c.975.585 1.729 1.407 2.261 2.465.537 1.058.806 2.29.806 3.697s-.269 2.636-.806 3.688c-.532 1.052-1.286 1.871-2.261 2.456-.976.585-2.128.878-3.458.878Zm.018-2.571c.721 0 1.324-.198 1.808-.594.485-.402.846-.94 1.082-1.614.242-.674.364-1.424.364-2.252 0-.833-.122-1.587-.364-2.26-.236-.68-.597-1.221-1.082-1.623-.484-.402-1.087-.603-1.808-.603-.739 0-1.354.2-1.845.603-.484.402-.848.942-1.09 1.622-.236.674-.355 1.428-.355 2.261 0 .828.119 1.578.355 2.252.242.674.606 1.212 1.09 1.614.491.396 1.106.594 1.845.594Zm12.94-5.675V26h-3.209V12.382h3.068v2.314h.159a3.89 3.89 0 0 1 1.499-1.818c.691-.45 1.545-.674 2.562-.674.94 0 1.758.201 2.456.603.703.402 1.247.984 1.631 1.747.39.762.582 1.687.577 2.775V26h-3.21v-8.175c0-.91-.236-1.622-.709-2.136-.467-.515-1.115-.772-1.942-.772-.562 0-1.061.124-1.498.373a2.578 2.578 0 0 0-1.02 1.055c-.242.46-.364 1.02-.364 1.675Z"/>
  <path fill="#EA4335" d="M105.696 80.417h1.907l5.436-5.437.267-2.308a24.43 24.43 0 0 0-23.188-5.085 24.434 24.434 0 0 0-16.563 17.007 2.956 2.956 0 0 1 1.907-.114l10.873-1.794s.553-.915.839-.858a13.562 13.562 0 0 1 18.56-1.411h-.038Z"/>
  <path fill="#4285F4" d="M120.783 84.594a24.487 24.487 0 0 0-7.382-11.903l-7.63 7.63a13.548 13.548 0 0 1 3.727 4.806 13.55 13.55 0 0 1 1.252 5.952v1.355a6.793 6.793 0 0 1 6.791 6.79 6.797 6.797 0 0 1-4.192 6.274 6.797 6.797 0 0 1-2.599.517H97.169l-1.355 1.373v8.145l1.355 1.354h13.581a17.66 17.66 0 0 0 17.005-12.422 17.661 17.661 0 0 0-6.972-19.871Z"/>
  <path fill="#34A853" d="M83.569 116.811h13.58v-10.872H83.57a6.766 6.766 0 0 1-2.805-.611l-1.907.591-5.474 5.437-.477 1.907a17.567 17.567 0 0 0 10.662 3.548Z"/>
  <path fill="#FBBC05" d="M83.569 81.542a17.663 17.663 0 0 0-10.663 31.664l7.878-7.878a6.782 6.782 0 0 1-3.884-4.969 6.79 6.79 0 0 1 12.868-4.015l7.878-7.878a17.644 17.644 0 0 0-14.077-6.924Z"/>
  <path fill="#000" d="M11.243 176.196c-1.442 0-2.769-.232-3.98-.694a9.638 9.638 0 0 1-3.15-2.003 9.461 9.461 0 0 1-2.083-3.045c-.499-1.157-.748-2.43-.748-3.818 0-1.389.25-2.662.748-3.819a9.168 9.168 0 0 1 2.083-3.018 9.365 9.365 0 0 1 3.177-2.003c1.211-.48 2.546-.721 4.006-.721 1.478 0 2.83.241 4.06.721a8.03 8.03 0 0 1 3.124 2.164l-1.656 1.655c-.766-.748-1.602-1.291-2.51-1.629-.89-.356-1.86-.534-2.911-.534a8.262 8.262 0 0 0-2.991.534 7.28 7.28 0 0 0-2.377 1.496 6.88 6.88 0 0 0-1.549 2.296c-.356.873-.534 1.825-.534 2.858 0 1.014.178 1.967.534 2.857.374.872.89 1.638 1.55 2.297a7.278 7.278 0 0 0 2.376 1.495c.908.356 1.896.534 2.964.534a8.97 8.97 0 0 0 2.858-.454c.925-.32 1.78-.845 2.563-1.575l1.522 2.029c-.925.784-2.011 1.38-3.258 1.789a12.485 12.485 0 0 1-3.818.588Zm4.513-2.724v-6.943h2.563v7.29l-2.563-.347Zm13.204 2.671c-1.424 0-2.688-.312-3.792-.935a6.957 6.957 0 0 1-2.617-2.564c-.64-1.104-.961-2.35-.961-3.738 0-1.407.32-2.653.961-3.739a6.76 6.76 0 0 1 2.617-2.537c1.104-.623 2.368-.935 3.792-.935 1.407 0 2.662.312 3.765.935a6.526 6.526 0 0 1 2.617 2.537c.641 1.068.962 2.314.962 3.739 0 1.406-.32 2.652-.962 3.738a6.71 6.71 0 0 1-2.617 2.564c-1.103.623-2.358.935-3.765.935Zm0-2.244c.908 0 1.718-.204 2.43-.614a4.33 4.33 0 0 0 1.71-1.736c.409-.765.614-1.646.614-2.643 0-1.015-.205-1.888-.615-2.617a4.33 4.33 0 0 0-1.709-1.736c-.712-.41-1.522-.614-2.43-.614-.908 0-1.718.204-2.43.614a4.57 4.57 0 0 0-1.71 1.736c-.426.729-.64 1.602-.64 2.617 0 .997.214 1.878.64 2.643a4.57 4.57 0 0 0 1.71 1.736c.712.41 1.522.614 2.43.614Zm16.791 2.244c-1.424 0-2.688-.312-3.792-.935a6.958 6.958 0 0 1-2.617-2.564c-.641-1.104-.961-2.35-.961-3.738 0-1.407.32-2.653.96-3.739a6.76 6.76 0 0 1 2.618-2.537c1.104-.623 2.368-.935 3.792-.935 1.407 0 2.662.312 3.765.935a6.526 6.526 0 0 1 2.617 2.537c.641 1.068.962 2.314.962 3.739 0 1.406-.32 2.652-.962 3.738a6.711 6.711 0 0 1-2.617 2.564c-1.103.623-2.358.935-3.765.935Zm0-2.244c.908 0 1.718-.204 2.43-.614.73-.409 1.3-.988 1.71-1.736.409-.765.614-1.646.614-2.643 0-1.015-.205-1.888-.615-2.617a4.331 4.331 0 0 0-1.709-1.736c-.712-.41-1.522-.614-2.43-.614-.908 0-1.718.204-2.43.614a4.57 4.57 0 0 0-1.71 1.736c-.426.729-.64 1.602-.64 2.617 0 .997.214 1.878.64 2.643a4.57 4.57 0 0 0 1.71 1.736c.712.41 1.522.614 2.43.614Zm16.925 7.424c-1.3 0-2.564-.187-3.793-.561-1.21-.356-2.198-.872-2.964-1.548l1.229-1.977c.658.57 1.468 1.015 2.43 1.336a9.031 9.031 0 0 0 3.017.507c1.674 0 2.902-.392 3.686-1.175.783-.783 1.175-1.976 1.175-3.578v-2.991l.267-2.804-.134-2.831v-3.872h2.43v12.231c0 2.492-.623 4.326-1.869 5.501-1.246 1.175-3.071 1.762-5.475 1.762Zm-.32-5.928c-1.372 0-2.6-.285-3.686-.855a6.85 6.85 0 0 1-2.564-2.43c-.623-1.032-.934-2.225-.934-3.578 0-1.371.311-2.564.934-3.579a6.658 6.658 0 0 1 2.564-2.403c1.086-.57 2.314-.855 3.685-.855 1.21 0 2.315.25 3.311.748.997.481 1.79 1.228 2.377 2.243.605 1.015.908 2.297.908 3.846 0 1.531-.302 2.804-.908 3.818-.587 1.015-1.38 1.781-2.377 2.297-.996.499-2.1.748-3.31.748Zm.293-2.243c.943 0 1.78-.196 2.51-.588.73-.392 1.3-.935 1.71-1.629.426-.694.64-1.495.64-2.403 0-.908-.214-1.709-.64-2.404a4.125 4.125 0 0 0-1.71-1.602c-.73-.392-1.567-.587-2.51-.587-.944 0-1.79.195-2.537.587a4.306 4.306 0 0 0-1.736 1.602c-.41.695-.614 1.496-.614 2.404 0 .908.205 1.709.614 2.403a4.5 4.5 0 0 0 1.736 1.629c.748.392 1.593.588 2.537.588Zm12.108 2.83v-19.815h2.564v19.815h-2.564Zm13.601.161c-1.513 0-2.848-.312-4.006-.935a6.853 6.853 0 0 1-2.67-2.564c-.623-1.086-.935-2.332-.935-3.738 0-1.407.303-2.653.908-3.739a6.676 6.676 0 0 1 2.537-2.537c1.086-.623 2.306-.935 3.659-.935 1.37 0 2.581.303 3.632.908a6.32 6.32 0 0 1 2.456 2.564c.606 1.086.908 2.359.908 3.819 0 .107-.009.231-.026.374 0 .142-.01.276-.027.4H82.75v-1.842h10.71l-1.042.64c.018-.908-.169-1.718-.56-2.43a4.16 4.16 0 0 0-1.63-1.655c-.676-.41-1.468-.615-2.376-.615-.89 0-1.683.205-2.377.615a4.116 4.116 0 0 0-1.629 1.682c-.392.712-.588 1.531-.588 2.457v.427c0 .944.214 1.789.641 2.537a4.62 4.62 0 0 0 1.843 1.709c.783.41 1.682.614 2.697.614.837 0 1.593-.142 2.27-.427a4.972 4.972 0 0 0 1.816-1.282l1.415 1.656a6.18 6.18 0 0 1-2.403 1.709c-.944.392-2.003.588-3.178.588Zm25.633.053c-1.425 0-2.742-.232-3.953-.694a9.712 9.712 0 0 1-3.124-2.003 9.673 9.673 0 0 1-2.056-3.045c-.499-1.157-.748-2.43-.748-3.818 0-1.389.249-2.662.748-3.819a9.163 9.163 0 0 1 2.083-3.018 9.134 9.134 0 0 1 3.124-2.003c1.211-.48 2.528-.721 3.952-.721 1.442 0 2.769.25 3.979.748a8.039 8.039 0 0 1 3.125 2.163l-1.736 1.683c-.712-.748-1.513-1.3-2.403-1.656a7.306 7.306 0 0 0-2.858-.561c-1.05 0-2.029.178-2.937.534a7.05 7.05 0 0 0-2.324 1.496 6.876 6.876 0 0 0-1.548 2.296c-.356.873-.535 1.825-.535 2.858 0 1.032.179 1.994.535 2.884a6.95 6.95 0 0 0 1.548 2.27 7.048 7.048 0 0 0 2.324 1.495 7.975 7.975 0 0 0 2.937.534 7.628 7.628 0 0 0 2.858-.534c.89-.374 1.691-.943 2.403-1.709l1.736 1.682a8.274 8.274 0 0 1-3.125 2.19c-1.21.499-2.545.748-4.005.748Zm10.405-.214v-19.815h2.564v19.815h-2.564Zm13.361.161c-1.425 0-2.689-.312-3.792-.935a6.959 6.959 0 0 1-2.618-2.564c-.64-1.104-.961-2.35-.961-3.738 0-1.407.321-2.653.961-3.739a6.76 6.76 0 0 1 2.618-2.537c1.103-.623 2.367-.935 3.792-.935 1.406 0 2.661.312 3.765.935a6.523 6.523 0 0 1 2.617 2.537c.641 1.068.961 2.314.961 3.739 0 1.406-.32 2.652-.961 3.738a6.708 6.708 0 0 1-2.617 2.564c-1.104.623-2.359.935-3.765.935Zm0-2.244c.908 0 1.718-.204 2.43-.614a4.333 4.333 0 0 0 1.709-1.736c.409-.765.614-1.646.614-2.643 0-1.015-.205-1.888-.614-2.617a4.333 4.333 0 0 0-1.709-1.736c-.712-.41-1.522-.614-2.43-.614-.908 0-1.718.204-2.431.614a4.575 4.575 0 0 0-1.709 1.736c-.427.729-.641 1.602-.641 2.617 0 .997.214 1.878.641 2.643a4.575 4.575 0 0 0 1.709 1.736c.713.41 1.523.614 2.431.614Zm16.684 2.244c-1.211 0-2.279-.223-3.205-.668a4.892 4.892 0 0 1-2.136-2.03c-.499-.925-.748-2.083-.748-3.471v-8.145h2.564v7.851c0 1.389.329 2.43.988 3.124.676.695 1.62 1.042 2.83 1.042.891 0 1.665-.178 2.324-.534a3.787 3.787 0 0 0 1.522-1.602c.356-.713.534-1.567.534-2.564v-7.317h2.564v14.153h-2.43v-3.818l.4 1.014a4.948 4.948 0 0 1-2.083 2.19c-.926.516-1.967.775-3.124.775Zm17.805 0c-1.371 0-2.599-.303-3.685-.908a6.683 6.683 0 0 1-2.537-2.537c-.623-1.086-.935-2.35-.935-3.792 0-1.442.312-2.698.935-3.766a6.683 6.683 0 0 1 2.537-2.537c1.086-.605 2.314-.908 3.685-.908 1.193 0 2.27.267 3.231.801.962.535 1.727 1.336 2.297 2.404.588 1.068.881 2.403.881 4.006 0 1.602-.285 2.937-.854 4.005-.552 1.068-1.309 1.878-2.27 2.43-.961.534-2.056.802-3.285.802Zm.214-2.244c.89 0 1.691-.204 2.403-.614.73-.409 1.3-.988 1.709-1.736.428-.765.641-1.646.641-2.643 0-1.015-.213-1.888-.641-2.617a4.327 4.327 0 0 0-1.709-1.736c-.712-.41-1.513-.614-2.403-.614-.908 0-1.718.204-2.43.614a4.568 4.568 0 0 0-1.709 1.736c-.428.729-.641 1.602-.641 2.617 0 .997.213 1.878.641 2.643a4.568 4.568 0 0 0 1.709 1.736c.712.41 1.522.614 2.43.614Zm4.833 2.083v-3.818l.161-3.285-.267-3.285v-9.427h2.563v19.815h-2.457Z"/>
  <path fill="#0089D6" d="M318.411 121.008c9.704-1.734 17.719-3.169 17.811-3.188l.168-.036-9.162-11.021c-5.039-6.062-9.162-11.045-9.162-11.074 0-.054 9.46-26.4 9.513-26.494.018-.032 6.456 11.21 15.607 27.249l15.695 27.513.119.21-29.117-.003-29.116-.004 17.644-3.152Zm-34.944-3.361c0-.016 4.317-7.594 9.594-16.842l9.593-16.814 11.18-9.488A4415.388 4415.388 0 0 1 325.05 65c.021-.007-.06.198-.179.458l-12.14 26.333-11.923 25.862-8.671.011c-4.768.006-8.67-.002-8.67-.017Z"/>
  <path fill="#000" d="m276.381 177.539 8.466-18.693h2.644l8.492 18.693h-2.804l-7.558-17.197h1.068l-7.557 17.197h-2.751Zm3.606-4.673.721-2.136h10.521l.775 2.136h-12.017Zm16.888 4.673v-1.655l9.08-11.27.507.882h-9.427v-2.11h11.483v1.682l-9.079 11.243-.588-.881h9.881v2.109h-11.857Zm21.083.161c-1.211 0-2.279-.223-3.204-.668a4.895 4.895 0 0 1-2.137-2.03c-.498-.925-.748-2.083-.748-3.471v-8.145h2.564v7.851c0 1.389.329 2.43.988 3.124.677.695 1.62 1.042 2.831 1.042.89 0 1.664-.178 2.323-.534a3.78 3.78 0 0 0 1.522-1.602c.356-.713.534-1.567.534-2.564v-7.317h2.564v14.153h-2.43v-3.818l.4 1.014a4.946 4.946 0 0 1-2.082 2.19c-.926.516-1.968.775-3.125.775Zm11.957-.161v-14.153h2.457v3.845l-.24-.961a4.343 4.343 0 0 1 1.976-2.243c.926-.517 2.065-.775 3.418-.775v2.484a1.929 1.929 0 0 0-.32-.027h-.267c-1.371 0-2.457.41-3.258 1.229-.802.819-1.202 2.002-1.202 3.551v7.05h-2.564Zm16.782.161c-1.513 0-2.848-.312-4.005-.935a6.851 6.851 0 0 1-2.671-2.564c-.623-1.086-.934-2.332-.934-3.738 0-1.407.302-2.653.908-3.739a6.669 6.669 0 0 1 2.537-2.537c1.086-.623 2.305-.935 3.658-.935 1.371 0 2.582.303 3.632.908a6.326 6.326 0 0 1 2.457 2.564c.605 1.086.908 2.359.908 3.819 0 .107-.009.231-.027.374 0 .142-.009.276-.027.4h-12.044v-1.842h10.709l-1.041.64c.017-.908-.17-1.718-.561-2.43a4.164 4.164 0 0 0-1.629-1.655c-.677-.41-1.469-.615-2.377-.615-.89 0-1.682.205-2.377.615a4.12 4.12 0 0 0-1.629 1.682c-.391.712-.587 1.531-.587 2.457v.427c0 .944.214 1.789.641 2.537a4.61 4.61 0 0 0 1.842 1.709c.784.41 1.683.614 2.698.614.836 0 1.593-.142 2.269-.427a4.964 4.964 0 0 0 1.816-1.282l1.416 1.656a6.179 6.179 0 0 1-2.404 1.709c-.943.392-2.003.588-3.178.588Z"/>
  <g clip-path="url(#a)">
    <path fill="#252F3E" d="M473.927 118.58c0 1.125.12 2.037.331 2.705.241.669.542 1.398.964 2.189.15.243.211.486.211.699 0 .304-.181.608-.573.911l-1.897 1.277c-.271.182-.542.274-.783.274-.301 0-.603-.152-.904-.426a9.439 9.439 0 0 1-1.084-1.428 24.022 24.022 0 0 1-.934-1.794c-2.349 2.797-5.3 4.195-8.854 4.195-2.53 0-4.548-.73-6.024-2.189s-2.229-3.404-2.229-5.835c0-2.584.904-4.681 2.741-6.261 1.837-1.581 4.277-2.371 7.379-2.371 1.024 0 2.078.091 3.193.243 1.114.152 2.258.395 3.463.669v-2.219c0-2.31-.482-3.921-1.415-4.863-.964-.942-2.591-1.398-4.91-1.398-1.054 0-2.138.121-3.252.395a23.804 23.804 0 0 0-3.253 1.033 8.41 8.41 0 0 1-1.054.395 1.837 1.837 0 0 1-.482.092c-.422 0-.633-.304-.633-.943v-1.489c0-.486.061-.851.211-1.064.151-.212.422-.425.843-.638 1.055-.547 2.32-1.003 3.795-1.368 1.476-.395 3.042-.577 4.699-.577 3.584 0 6.204.82 7.891 2.462 1.656 1.641 2.499 4.133 2.499 7.477v9.847h.061Zm-12.228 4.62c.994 0 2.018-.182 3.102-.547 1.084-.365 2.048-1.033 2.861-1.945.482-.578.843-1.216 1.024-1.945.181-.73.301-1.611.301-2.645v-1.276a24.963 24.963 0 0 0-2.771-.517 22.396 22.396 0 0 0-2.831-.182c-2.018 0-3.493.395-4.487 1.215-.994.821-1.476 1.976-1.476 3.496 0 1.428.361 2.492 1.114 3.221.723.76 1.777 1.125 3.163 1.125Zm24.185 3.283c-.543 0-.904-.092-1.145-.304-.241-.183-.452-.608-.632-1.186l-7.078-23.494c-.181-.608-.271-1.003-.271-1.216 0-.486.241-.76.723-.76h2.951c.572 0 .964.092 1.175.304.241.183.421.608.602 1.186l5.06 20.12 4.698-20.12c.151-.608.332-1.003.573-1.186.241-.182.662-.304 1.204-.304h2.41c.572 0 .964.092 1.204.304.241.183.452.608.573 1.186l4.758 20.363 5.211-20.363c.18-.608.391-1.003.602-1.186.241-.182.633-.304 1.175-.304h2.801c.482 0 .753.243.753.76 0 .152-.03.304-.061.486-.03.183-.09.426-.21.76l-7.259 23.495c-.181.608-.391 1.003-.632 1.185-.241.182-.633.304-1.145.304h-2.59c-.572 0-.964-.091-1.205-.304-.241-.213-.451-.608-.572-1.216l-4.668-19.604-4.638 19.574c-.151.608-.332 1.003-.573 1.216-.241.212-.662.304-1.204.304h-2.59Zm38.701.82c-1.566 0-3.132-.182-4.638-.547-1.506-.365-2.681-.76-3.464-1.216-.482-.273-.813-.577-.933-.851a2.15 2.15 0 0 1-.181-.851v-1.55c0-.638.241-.942.693-.942.18 0 .361.03.542.091.181.061.452.183.753.304 1.024.456 2.138.821 3.313 1.064a17.94 17.94 0 0 0 3.584.365c1.897 0 3.373-.335 4.397-1.003 1.024-.669 1.566-1.642 1.566-2.888 0-.851-.271-1.55-.813-2.127-.542-.578-1.566-1.095-3.042-1.581l-4.367-1.368c-2.199-.699-3.825-1.732-4.819-3.1-.994-1.337-1.506-2.826-1.506-4.407 0-1.276.271-2.401.813-3.374a7.809 7.809 0 0 1 2.169-2.492c.903-.699 1.927-1.215 3.132-1.58s2.47-.517 3.795-.517c.663 0 1.355.03 2.018.122.693.09 1.325.212 1.958.334.602.152 1.174.304 1.716.486.542.183.964.365 1.265.547.422.243.723.487.904.76.181.243.271.578.271 1.003v1.429c0 .638-.241.972-.693.972-.241 0-.632-.121-1.144-.364-1.717-.791-3.645-1.186-5.783-1.186-1.717 0-3.072.274-4.006.851-.933.578-1.415 1.459-1.415 2.705 0 .851.301 1.581.903 2.158.603.578 1.717 1.155 3.313 1.672l4.277 1.368c2.169.699 3.735 1.671 4.668 2.917.934 1.247 1.386 2.675 1.386 4.256 0 1.306-.271 2.492-.783 3.525-.542 1.034-1.265 1.945-2.199 2.675-.934.76-2.048 1.307-3.343 1.702a14.217 14.217 0 0 1-4.307.638Z"/>
    <path fill="#F90" fill-rule="evenodd" d="M530.278 142.075c-9.909 7.385-24.306 11.306-36.684 11.306-17.348 0-32.979-6.474-44.786-17.233-.933-.851-.09-2.006 1.024-1.338 12.77 7.477 28.522 12.006 44.816 12.006 10.993 0 23.07-2.31 34.184-7.051 1.656-.76 3.072 1.094 1.446 2.31Z" clip-rule="evenodd"/>
    <path fill="#F90" fill-rule="evenodd" d="M534.404 137.333c-1.265-1.641-8.373-.79-11.596-.395-.963.121-1.114-.73-.241-1.368 5.663-4.012 14.969-2.857 16.053-1.519 1.085 1.367-.301 10.759-5.602 15.257-.813.699-1.596.335-1.234-.577 1.204-3.009 3.885-9.787 2.62-11.398Z" clip-rule="evenodd"/>
  </g>
  <path fill="#33D9DD" d="M695.366 76.118c0-1.568 0-3.135-.042-4.745 0-.72.423-1.101.932-1.483h.635c.72.424.932 1.017.932 1.822-.042 1.906 0 3.813 0 5.719 0 .38.085.805-.212 1.143-.635-.72-.212-1.567-.339-2.33-.042-1.016 0-2.075.212-3.092-.042.763-.169.847-1.525.382-.085.55.042 1.1-.042 1.652-.085.338.085.847-.551.931Z"/>
  <path fill="#0062FE" d="M676.26 128.645c-4.998-.551-8.641-3.092-11.056-7.456.085-.72.593-.338.847-.254a8.96 8.96 0 0 1 1.779.975c-.042-.255-.508-.593.043-.805 2.075 2.626 4.66 4.405 7.964 5.083.423.339.932-.042 1.355.212-.042.551-.508.381-.847.466.042-.043.127 0 .169.042 1.441 1.313 3.22 1.313 4.999 1.229.254 0 .508 0 .762.127.128.042.212.169.255.254 0 .127-.127.254-.255.254-1.948-.085-3.981.042-6.015-.127Z"/>
  <path fill="#0C9EEF" d="M672.238 93.4a1.6 1.6 0 0 1-.975-.338l-5.295-3.05c-.762-.466-1.355-1.06-.805-1.949.509-.932 1.271-.678 1.991-.254 1.822 1.059 3.643 2.076 5.465 3.135.593.338.974.847.762 1.567a1.07 1.07 0 0 1-1.143.89Z"/>
  <path fill="#0676FC" d="M677.193 126.442c-.424-.127-.932.169-1.314-.254 5.295.211 10.591.042 15.886.127.381 0 .805.042 1.186.084.678.339 1.398.043 2.075.17.297.085.593.254.848.508.974.805 2.075 1.313 3.389 1.059.381.043.804-.042 1.016.424-.254.381-.678.212-1.016.212h-4.703c-.338-.085-.635-.127-.974-.085-1.652.169-3.135-.042-4.363-1.313-.381-.381-.89-.297-1.356-.339-3.388-.254-6.777-.212-10.166-.254a2.125 2.125 0 0 1-.508-.339Z"/>
  <path fill="#0080F9" d="M695.153 126.611c-.72-.127-1.525.297-2.203-.254 2.881-.085 5.761-.085 8.642 0 .805.297 1.652.127 2.499.127.508-.042 1.017.127 1.44.466a3.985 3.985 0 0 0 3.093 1.144c.296-.042 1.016-.254.847.593-2.754 0-5.507.085-8.26-.085a1.386 1.386 0 0 1-.932-.212h-1.102c-1.271-.762-2.499-1.609-4.024-1.779Z"/>
  <path fill="#20BCE6" d="M681.683 78.066c.593.975 1.186 1.949 1.737 2.923.423.72.381 1.483-.382 1.906-.762.424-1.397.043-1.821-.677-.847-1.525-1.694-3.008-2.542-4.533.212-.89.805-.508 1.229-.339.635.254 1.228.508 1.779.72Z"/>
  <path fill="#0290F3" d="M712.014 126.4c2.33-.043 4.66-.466 6.82-1.313 1.186.042 1.991.677 2.034 1.525-1.441.974-3.135 1.609-4.872 1.863a.262.262 0 0 1 .042-.296c.128-.085.255-.085.636-.085a1.89 1.89 0 0 1-1.398-.635 2.237 2.237 0 0 0-2.203-.636c-.381.085-.932.297-1.059-.423Z"/>
  <path fill="#0185F7" d="M709.557 128.602a.923.923 0 0 0-.932-.169 3.528 3.528 0 0 1-3.219-1.102c-.636-.677-1.356-.677-2.161-.677-.55 0-1.186.254-1.652-.212a60.429 60.429 0 0 1 5.55 0c.084.127.211.169.381.127 1.567-.17 3.007.042 4.193 1.271.424.466 1.102.254 1.695.296.466.043 1.059-.212 1.271.509l-.593.042c-1.525.127-3.008.127-4.533-.085Z"/>
  <path fill="#018AF5" d="M714.682 128.602a1.048 1.048 0 0 0-.932-.212c-1.228.17-2.287-.084-3.134-1.059-.636-.72-1.441-.804-2.373-.72-.381.043-.804.17-1.101-.254a46.574 46.574 0 0 1 4.872 0 .493.493 0 0 0 .677.212c1.483-.635 2.373.254 3.432 1.059.635.466.084.551-.085.762-.424.255-.89.297-1.356.212Z"/>
  <path fill="#2FD5DD" d="m727.051 90.012-3.092 1.78c-1.356-.17-1.864-.551-2.076-1.568 1.059-.763 2.203-1.398 3.389-1.949.847.255 1.525.89 1.779 1.737Z"/>
  <path fill="#0166FE" d="M667.916 121.104c-.297.593.466.721.508 1.398-.678-.381-1.271-.72-1.864-1.016-.423-.212-.805-.678-1.355-.255-.593-1.016-1.186-1.99-1.313-3.177-.297-.889.211-.889.72-.55.55.339 1.059.635 1.694.508.212 1.186 1.186 1.991 1.61 3.092Z"/>
  <path fill="#0797F1" d="M720.867 126.612c-.296-1.017-1.398-.975-2.033-1.525l3.516-2.203c.551.551 1.567.72 1.61 1.779-.932.763-1.864 1.567-3.093 1.949Z"/>
  <path fill="#24C3E4" d="m725.272 103.652-1.313-1.779c.127-1.059.932-1.356 1.779-1.61a14.428 14.428 0 0 1 2.627 3.982c-.297.635-.763.381-1.187.212-.635-.255-1.27-.594-1.906-.805Z"/>
  <path fill="#016AFE" d="M666.348 117.97c-.635.805-1.101.169-1.652-.212-.339-.254-.805-.72-.805.212a7.168 7.168 0 0 1-.466-2.838c-.127-1.187-.084-1.229 1.483-1.229.636 0 .89.339.847.974a1.8 1.8 0 0 0 .085 1.059l.508 2.034Z"/>
  <path fill="#067CFA" d="m709.557 128.603 4.532.042a3.13 3.13 0 0 1-1.525.127h-34.651c-.55 0-1.101.085-1.652-.127l6.27-.042c.677-.466 1.398-.255 2.118-.255.847-.042 1.694 0 2.541-.042 2.457-.127 4.829.297 7.286.297 1.652 0 3.347 0 4.999.042.296 0 .593.042.805-.212 3.092.17 6.184.254 9.277.17Z"/>
  <path fill="#17ADEB" d="M729.551 115.174c-.127.975-.296 1.949-.932 2.796-.847-.127-1.737-.085-2.076-1.144.509-1.482.848-3.05.975-4.617.381 0 .423.297.423.508-.042.932.466 1.483 1.271 1.78.254.042.381.296.339.508.042.085.042.127 0 .169Z"/>
  <path fill="#28C7E3" d="M720.612 96.281a12.071 12.071 0 0 1 4.702 3.516c.212.932-.677.974-1.143 1.356-.339.254-.636-.212-.848-.466-.932-1.102-1.821-2.288-2.795-3.39-.509-.635-.466-.804.084-1.016Z"/>
  <path fill="#24C1E5" d="M681.683 78.066c-.636.424-1.102-.085-1.568-.381-.466-.297-.889-.508-1.355 0a13.456 13.456 0 0 1-.805-1.313c-.297-.593-.085-1.313.508-1.61.678-.381 1.229-.127 1.61.424.593.974 1.059 1.948 1.61 2.88Z"/>
  <path fill="#36E3DA" d="M711.971 77.177c.381-.678.72-1.356 1.143-1.991.382-.551.975-.848 1.61-.424.593.297.805 1.017.508 1.61 0 .042-.042.085-.084.127-.381.635-.72 1.27-1.102 1.864-.932 0-1.567-.466-2.075-1.186Z"/>
  <path fill="#32DCDC" d="m711.971 77.177 2.076 1.186c-.508.89-.89 1.864-1.525 2.668a2.052 2.052 0 0 1-2.076-1.186l1.525-2.668Z"/>
  <path fill="#2DD3DE" d="M695.366 76.118c.55-.975 0-2.076.339-3.177.508.127.804.762 1.313.635.678-.127.169-.847.593-1.398v3.897a.714.714 0 0 0-.127.424c-.085.89-.297 1.017-1.102.678-.169-.085-.254-.255-.466-.255-.127.594.17 1.271-.338 1.78-.509-.805-.17-1.695-.212-2.584Z"/>
  <path fill="#2ED0E0" d="M721.884 90.224c.424.89 1.271 1.186 2.076 1.567-.72.466-1.483.932-2.245 1.355-.678.34-1.356.466-1.822-.38-.381-.721-.127-1.356.509-1.822.508-.255 1.016-.466 1.482-.72Z"/>
  <path fill="#0C9EEF" d="M723.959 124.621c-.254-.848-1.44-.848-1.61-1.779l2.076-2.203c.55.593 1.398.847 1.821 1.567a10.337 10.337 0 0 1-2.287 2.415Z"/>
  <path fill="#21BCE6" d="M729.043 106.024c.974 2.542 1.186 5.337.72 8.049-.508-.466-.339-1.102-.381-1.652 0-.763.042-1.568 0-2.33-.212-.72-.932-.848-1.44-1.144-.297.296-.085.762-.466.974l-.636-2.923c-.254-.635-.042-.847.551-.593.593.254 1.186.17 1.652-.381Z"/>
  <path fill="#22BFE5" d="M729.043 106.024c-.17.89-.636 1.101-1.441.635-.127-.084-.847-.677-.762.255-.509-1.102-1.059-2.203-1.568-3.305.721-.254 1.187.255 1.78.509.423.169.847.508 1.313.127.339.551.55 1.144.678 1.779Z"/>
  <path fill="#1CB4E8" d="M729.72 109.583c0 1.482.042 3.007.042 4.49.043.381-.042.762-.211 1.101 0-.085 0-.212-.043-.212-1.355-.423-1.906-1.398-1.948-2.753v-.254c.127-.72.127-1.568 1.27-1.017.382.17.339-.254.382-.508.127-.254-.085-.763.508-.847Z"/>
  <path fill="#24B1EC" d="M679.395 91.537a18.086 18.086 0 0 1 5.761-4.83c.55-.211.635.043.423.467-.254.38-.508.72-.847.974a24.497 24.497 0 0 1-3.008 2.541c-.466.424-1.016.763-1.567 1.06-.381.254-.381.211-.762-.212Z"/>
  <path fill="#32D7DD" d="M710.403 79.845c.636.508 1.313.932 2.076 1.186-.254.466-.466.974-.763 1.44-.381.593-.974.848-1.609.466-.636-.38-.932-.931-.509-1.694.254-.466.551-.932.805-1.398Z"/>
  <path fill="#31C8E4" d="M720.613 96.281c-.55.381-.084.593.127.805.848 1.017 1.695 1.99 2.542 3.008.932 1.101 1.356 1.059 2.033-.34.212.085.382.255.424.467-.593.508-1.398.847-1.779 1.609l-2.415-2.202c-.677-1.314-1.736-2.33-2.584-3.474-.296-.381-.635-.72.254-.593.382.424 1.06.17 1.398.72Z"/>
  <path fill="#10A3EE" d="M726.205 122.248c-.636-.466-1.652-.55-1.822-1.567l1.271-2.033c.72.423 1.313 1.016 1.864 1.652-.381.635-.635 1.398-1.313 1.948Z"/>
  <path fill="#35BDEA" d="M688.461 85.182a6.918 6.918 0 0 1 1.991-.677c.593-.127.72.127.296.508a24.477 24.477 0 0 0-2.669 2.88l-2.668 1.525c-.593-.423-.085-.72.127-1.016a21.325 21.325 0 0 1 2.16-2.203c.297-.296.805-.466.763-1.017Z"/>
  <path fill="#14A7ED" d="M727.56 120.258a3.406 3.406 0 0 1-1.864-1.653l.89-1.779c.508.678 1.355.72 2.076 1.144-.339.805-.466 1.694-1.102 2.288Z"/>
  <path fill="#0677FD" d="M663.469 112.802c0-.89.169-1.779.465-2.584.89.72 1.568 1.694 1.864 2.796.212.72-.042 1.228-.932 1.059h-.338c-1.229.042-1.229.042-1.059-1.271Z"/>
  <path fill="#39AFF1" d="m681.725 92.511-1.609 1.991c-1.229.466-1.949 1.652-3.093 2.245-.212.127-.381.381-.635.381-.424.043-.424-.17-.254-.466.042-.339.211-.677.423-.89a36.056 36.056 0 0 1 3.643-3.092c.339-.211.593-.55 1.017-.55.254.042.424.17.508.381Z"/>
  <path fill="#1EB7E7" d="M729.72 109.582c-.254.212-.212.551-.212.805 0 .89.042 1.525-1.144.72-.847-.55-.381.678-.805.848l-.084-2.118c.084-1.525.127-1.568 1.482-.72.254.169.636.169.763.465Z"/>
  <path fill="#46C8E9" d="M691.171 86.75c-.169.17-.423.212-.677.17-.551-.17-.551-.466-.255-.848.17-.212.339-.381.509-.55a5 5 0 0 1 1.143-.975c.17.043 0-.212 0-.084 0 .042-.042.042-.084.042-.17 0-.382-.085-.466-.212.847-.339 1.737-.466 2.626-.466.254-.085.508-.212.72.043.127.127 0 .296-.127.38-1.059.89-1.991 2.034-3.389 2.5Z"/>
  <path fill="#33B4ED" d="m681.725 92.511-.509-.212c-.169-.296-.042-.593.043-.931.127-.255.296-.424.508-.594.974-.677 1.864-1.44 2.796-2.202.339-.127.72-.34 1.059-.043-.127.297-.508.509-.212.89a36.405 36.405 0 0 0-3.685 3.092Z"/>
  <path fill="#3CC2E9" d="M691.341 84.293h.975c-.636.678-1.187 1.271-1.78 1.822-.296.296-.508.508-.084.847l-2.415.932c.424-1.356 1.525-2.16 2.499-3.05.382-.339.043-.254-.127-.339.297-.212.636-.254.932-.212Z"/>
  <path fill="#E1F7FA" d="M708.921 87.428c.635.17 1.186.55 1.567 1.101-.296.847-1.101 1.398-1.991 1.313l-1.779-1.101c.72-.424 1.356-1.017 2.203-1.313Z"/>
  <path fill="#34DBDC" d="m727.052 90.012-1.78-1.737c.297-.17.551-.339.848-.508.72-.509 1.398-.509 1.906.296.466.805.127 1.356-.551 1.78-.127.042-.254.126-.423.169Z"/>
  <path fill="#2BCFE0" d="M695.62 78.744v-2.33c.847.593 1.694 1.313 1.991-.297 0 .848 0 1.652.042 2.5-.678.89-1.229.932-2.033.127Z"/>
  <path fill="#40AFF2" d="M676.092 96.705c.042.254.127.466.381.212.805-.805 1.906-1.229 2.584-2.16.254-.382.593-.551 1.017-.213l-1.101 1.78c-.848.296-1.398.932-1.991 1.525a7.261 7.261 0 0 1-1.102.89c-.212.126-.508.253-.466-.255.085-.72.339-1.27.678-1.78Z"/>
  <path fill="#E5F1FE" d="M676.981 111.319c.551 1.483.339 2.034-1.059 2.711-.254.127-.423.085-.508-.127a2.153 2.153 0 0 1-.424-1.228c.509-1.186 1.017-1.525 1.991-1.356Z"/>
  <path fill="#3DCBE6" d="M719.172 95.56c-.127.085-.508-.042-.169.34.762.847 1.525 1.736 2.203 2.668.211.297.635.593.296 1.06l-1.779-1.102c-.508-1.017-1.44-1.78-1.991-2.753-.169-.297-.635-.848.296-.636.424.043.848.17 1.144.424Z"/>
  <path fill="#4FCCEA" d="m691.171 86.75 3.474-2.838-.635-.085c.677-.339 1.355-.17 2.033-.17a.404.404 0 0 1-.127.509c-.89.678-1.44 1.737-2.542 2.118l-2.203.466Z"/>
  <path fill="#59D0EA" d="m693.417 86.284 2.669-2.626h1.567c.254.38.042.635-.212.847-.805.635-1.482 1.567-2.668 1.61-.466.254-.932.127-1.356.169Z"/>
  <path fill="#D1E8FD" d="m674.567 111.107-.212-1.101c.169-.551.635-.805 1.017-1.102.508-.296.762-.847.677-1.398v-1.567c.085-.466-.169-1.059.509-1.271v4.236c.212 1.314-.297 2.118-1.441 2.457-.211.043-.465-.042-.55-.254Z"/>
  <path fill="#79D8EE" d="M709.98 94.671c1.525-.677 3.135-.508 4.703-.211-.043.084-.17.169-.255.211-.211.085-.466.085-.677.085h-1.144c-.254-.042-.508 0-.636-.212.339.847 1.229 1.314 1.61 2.16h-1.313a2.955 2.955 0 0 1-2.288-2.033Z"/>
  <path fill="#47AFF4" d="M675.414 98.4c.805.126 1.059-.636 1.567-1.017.466-.382.89-.763 1.314-1.186.254-.255.466-.043.72.042l-.89 1.78a15.548 15.548 0 0 0-2.584 1.778c-.339.254-.678.551-.508-.254a1.51 1.51 0 0 1 .381-1.144Z"/>
  <path fill="#2AADEF" d="m681.895 90.944-.424.423c-.805 1.271-2.118 1.949-3.304 2.796-.297.212-.72.254-.466-.381a10.188 10.188 0 0 1 1.737-2.288c.381.551.635-.042.889-.169.466-.254.932-.593 1.356-.89.127.17.212.34.212.509Z"/>
  <path fill="#D8F4F9" d="M708.921 87.428c-.635.593-1.228 1.313-2.202 1.313l-1.102-.678a4.677 4.677 0 0 1 1.991-1.525c.551.043.89.508 1.313.89Z"/>
  <path fill="#30ADF0" d="M677.659 93.824c.042.297.127.382.381.17 1.101-.89 2.245-1.737 3.389-2.584 0 .296-.043.635-.212.89-1.483 1.058-2.923 2.202-4.236 3.43-.127.128-.254.297-.424.043.127-.763.678-1.313 1.102-1.949Z"/>
  <path fill="#1E86FD" d="M665.035 113.988c1.059-.127.721-.763.424-1.313-.508-.805-1.144-1.568-1.525-2.457 0-.254.042-.466.212-.678.847.254 1.694 1.483 1.779 2.457l-.042 3.939c-.382-.338-.212-.72-.212-1.143 0-.466-.212-.678-.678-.636-.085-.042-.085-.084-.085-.127.085 0 .085-.042.127-.042Z"/>
  <path fill="#AED6FC" d="M676.303 106.024v.89c-.678.593-1.101 1.482-2.203 1.355a9.854 9.854 0 0 1 0-4.448l.127.085c.085.212.17.424.128.635v1.441c0 .211 0 .466.042.677.678-.169 1.101-1.143 1.906-.635Z"/>
  <path fill="#D9EBFE" d="M674.566 111.107c1.187-.042 1.991-.932 1.991-2.202.382.762.17 1.652.424 2.456-.974-.042-1.356.805-1.991 1.356-.254-.508-.424-1.059-.424-1.61Z"/>
  <path fill="#52B2F5" d="M674.991 99.585c.042.127 0 .466.254.127.593-.72 1.525-.974 2.118-1.736.212-.255.466-.085.678.042a1.69 1.69 0 0 1-.382.89c-.635.931-1.736 1.313-2.541 2.075-.085.085-.254.212-.381.085-.255-.212-.128-.466-.043-.72.043-.254.127-.55.297-.763Z"/>
  <path fill="#7FDCED" d="m698.246 86.072-2.203-.042c0-.424.339-.381.594-.466h.677c1.271.212 1.907-.847 2.881-1.44.085 0-.043-.085-.085-.043-.296.17-.551.212-.551-.254.89-.17 1.568.593 2.415.466-1.059.974-1.991 2.245-3.728 1.78Z"/>
  <path fill="#98CCFB" d="M676.304 106.024c-.89 0-1.398.763-2.203 1.313v-1.313c.297-.593.847-.889 1.313-1.271.382-.254.636-.593.72-1.059.085-.211.17-.423.424-.338 0 .423 0 .889-.042 1.313-.339.423-.127.889-.212 1.355Z"/>
  <path fill="#63D3EB" d="M713.793 94.502h.677a3.414 3.414 0 0 1 1.907 1.525c.254.381.466.763.042 1.186l-1.101-.254c-.255-.254-.636-.042-.89-.212.169-.254.127-.593-.042-.847-.255-.424-.805-.763-.593-1.398Z"/>
  <path fill="#4ACEE7" d="M718.028 95.138c-.424.042-.382.211-.127.465.55.678 1.059 1.398 1.652 2.076.211.254.466.508.211.847l-1.313-.677c-.296-.932-1.101-1.525-1.736-2.203-.17-.212-.382-.424-.212-.678.169-.254.466-.17.677-.042a1.22 1.22 0 0 1 .848.212Z"/>
  <path fill="#9EE0F3" d="m709.133 97.171-1.568.424a3.325 3.325 0 0 1-1.779-1.78c.466-.338.974-.593 1.567-.635a4.758 4.758 0 0 0 1.78 1.991Z"/>
  <path fill="#2DBAE9" d="m685.623 88.53-1.101.211c-.043-.17 0-.296.127-.423.932-.89 1.864-1.78 2.753-2.711l1.059-.466c.339.084.636.127.17.508l-3.008 2.88Z"/>
  <path fill="#D8F0FB" d="M703.118 100.263c-.254.339-.72.466-.89.89a2.067 2.067 0 0 1-1.779-1.78c.254-.423.551-.804 1.102-.889.423.678.932 1.313 1.567 1.779Z"/>
  <path fill="#E2F4FC" d="M700.491 99.374c.509.677.975 1.355 1.779 1.779-.169.423-.635.55-.889.889-.932-.212-1.356-.889-1.568-1.779.043-.424.297-.762.678-.89Z"/>
  <path fill="#65D4EB" d="M696.721 85.86c-.254 0-.508-.042-.678.212l-1.313.043c1.186-.509 2.16-1.356 2.881-2.457.593-.085 1.186 0 1.779.17a.322.322 0 0 1 .084.169c0 .084-.042.084-.042.084-1.144.297-1.779 1.229-2.711 1.78Z"/>
  <path fill="#84DAF0" d="M709.98 94.671c.805.636 1.271 1.61 2.203 2.034h-.635c-.89.254-1.653.17-2.076-.805-.17-.424-.805-.424-.805-.932.424-.339.89-.212 1.313-.297Z"/>
  <path fill="#28B8E9" d="M687.402 85.606c.127.042.466.127.254.254-1.102.72-1.822 1.864-2.881 2.627-.169-.085-.339-.212-.212-.424.297-.339.593-.635.848-.974.254-.34 0-.34-.212-.382a7.664 7.664 0 0 1 2.203-1.1Z"/>
  <path fill="#93DDF2" d="M709.133 97.17a2.012 2.012 0 0 1-1.779-1.99l.678-.212c.889.424 1.271 1.398 1.991 1.991-.212.254-.551.17-.89.212Z"/>
  <path fill="#8CE0EF" d="M698.247 86.072c.763.085 1.525-.17 2.033-.72.466-.466 1.144-.678 1.737-1.017.339 0 .636 0 .72.424-.847.593-1.482 1.652-2.711 1.567-.593-.084-1.228.127-1.779-.254Z"/>
  <path fill="#5AD1EA" d="M716.418 97.213c.043-1.398-1.186-1.906-1.948-2.71l.254-.043c.296-.043.635.085.847.296 1.186.509 1.991 1.61 2.203 2.88-.466-.084-.932-.211-1.356-.423Z"/>
  <path fill="#71D6ED" d="M714.471 96.705c.296.042.678-.085.889.254-.593.042-1.186-.042-1.779-.212-.889-.466-1.355-1.27-1.864-2.075.254-.212.509-.127.72-.127.805.593 1.737 1.059 2.034 2.16Z"/>
  <path fill="#BEE8F8" d="M705.151 98.738a.754.754 0 0 1-.678.424c-1.101.084-1.355-.848-1.779-1.568.17-.38.551-.508.89-.635.762.381 1.398.89 1.567 1.78Z"/>
  <path fill="#5AB4F6" d="m674.736 100.39.085.551a14.795 14.795 0 0 1 2.88-2.033c-.084.466-.211.932-.466 1.313-.804.381-1.397.974-2.118 1.525-.169.127-.381.381-.55.212-.17-.127-.127-.466-.043-.678-.042-.297.043-.593.212-.89Z"/>
  <path fill="#2E8EFC" d="M665.925 112.039c-.593-.847-.974-1.821-1.779-2.457.042-.423.169-.805.424-1.101.847.72 1.525 1.525 1.567 2.711.042.296 0 .593-.212.847Z"/>
  <path fill="#71BCF8" d="M677.193 100.475c-.043.551-.17 1.059-.424 1.525-.889.551-1.525 1.525-2.626 1.737l-.085.042c.085-.466-.085-.932.254-1.355.89-.424 1.525-1.229 2.33-1.737.212-.085.297-.297.551-.212Z"/>
  <path fill="#67B9F8" d="M677.193 100.475c-.678 1.016-1.991 1.313-2.711 2.372-.128.169-.085-.297-.17-.424-.042-.381 0-.762.212-1.101.169.042-.254.805.339.296.508-.423 1.059-.805 1.567-1.228.254-.212.466-.339.805-.127 0 .084 0 .169-.042.212Z"/>
  <path fill="#CCF1F7" d="M707.565 86.538a6.528 6.528 0 0 1-1.99 1.568 1.996 1.996 0 0 1-1.102-.466c.72-.509 1.398-1.144 2.203-1.568.339.043.678.212.889.466Z"/>
  <path fill="#C5EBF9" d="M702.693 97.594c.721.382.975 1.313 1.78 1.568-.17.38-.594.465-.89.677-.805-.338-1.483-.805-1.567-1.779.127-.296.381-.466.677-.466Z"/>
  <path fill="#8BDBF0" d="M710.022 96.959c-1.101-.212-1.355-1.313-1.991-1.991h.678c.381.254.974.254 1.101.805.255 1.017 1.017 1.017 1.78.974-.466.297-1.017.127-1.568.212Z"/>
  <path fill="#52CFE8" d="M717.775 97.594c-.593-1.059-1.228-2.118-2.203-2.88.551-.043 1.102-.17 1.568.17-.424 0-.805 0-.297.55.508.466.974.974 1.398 1.525.169.296.424.508.169.89l-.635-.255Z"/>
  <path fill="#C3E0FC" d="M676.346 107.549c.212.805-.296 1.186-.847 1.61-.381.296-.762.55-1.144.847a1.33 1.33 0 0 1-.211-.89c.508-.847 1.101-1.525 2.202-1.567Z"/>
  <path fill="#9CCDFC" d="M667.408 104.203c.085-.382.424-.466.678-.678.805.423 1.271 1.313 1.101 2.203-.084.211-.254.381-.466.423-.847-.296-1.059-1.101-1.313-1.948Z"/>
  <path fill="#59A7FC" d="M667.069 108.735c-.043.381-.212.763-.466 1.102-.593-.848-1.314-1.61-1.356-2.711a.999.999 0 0 1 .381-.678c.932.466 1.229 1.355 1.441 2.287Z"/>
  <path fill="#CEEDFA" d="M702.059 98.06c.381.72 1.101 1.102 1.567 1.78l-.466.423c-1.059-.127-1.398-.847-1.525-1.78l.424-.423Z"/>
  <path fill="#A4E1F4" d="M705.786 95.815a8.838 8.838 0 0 1 1.779 1.78c-.338.254-.72.38-1.101.423a2.329 2.329 0 0 1-1.144-2.033.638.638 0 0 1 .466-.17Z"/>
  <path fill="#73D9EC" d="M699.39 84.081v-.254h.211c.127.34.551.085.763.424-.932.635-1.61 1.779-3.008 1.567-.254-.381.043-.508.254-.677.551-.382 1.144-.763 1.78-1.06Z"/>
  <path fill="#9DE5F1" d="M703.372 84.759c.381-.085.762.085.889.424-.551.508-1.228.847-1.694 1.482-.085.17-.339.212-.509.127l-.042-.042c-.296-.042-.635.085-.89-.212.297-1.144 1.356-1.398 2.246-1.779Z"/>
  <path fill="#AED5FC" d="M669.23 105.77c-.127-.847-.72-1.483-1.101-2.203.169-.296.381-.508.678-.635a2.312 2.312 0 0 1 1.101 2.203c-.127.296-.381.508-.678.635Z"/>
  <path fill="#ADE4F6" d="m705.363 96.027 1.144 2.033c-.085.17-.254.254-.424.212-.847-.085-1.313-.593-1.567-1.78.17-.253.508-.423.847-.465Z"/>
  <path fill="#B4E5F6" d="M704.474 96.45c.635.51.635 1.568 1.567 1.78l-.89.466-1.567-1.78c.297-.126.508-.423.89-.465Z"/>
  <path fill="#79BFF8" d="M674.143 103.779c.89-.55 1.441-1.609 2.627-1.737a1.99 1.99 0 0 1-.212 1.102c-.551.169-.932.551-1.398.847-.339.212-.551.593-1.059.466l.042-.678Z"/>
  <path fill="#499EFB" d="M665.248 107.126c.381.932 1.228 1.652 1.355 2.711-.084.169-.127.339-.212.508-.72-.635-1.355-1.313-1.609-2.287.042-.382.212-.72.466-.932Z"/>
  <path fill="#C9E4FC" d="m669.018 102.677.678-.466c.932.043 1.44.89 1.355 1.991l-.677.466c-.551-.593-.975-1.27-1.356-1.991Z"/>
  <path fill="#B8ECF5" d="m705.363 85.437.89.424c-.551.805-1.229 1.44-2.203 1.567-.254 0-.508.043-.678-.212.297-1.059 1.313-1.228 1.991-1.779Z"/>
  <path fill="#3D97FB" d="M664.782 107.973c.508.805 1.313 1.355 1.609 2.287.043.297-.042.593-.254.848l-1.567-2.711c0-.128.085-.297.212-.424Z"/>
  <path fill="#D7EBFD" d="M671.009 104.245c-.339-.72-.424-1.652-1.356-1.991l.678-.424c.932.297 1.356.975 1.313 1.991l-.635.424Z"/>
  <path fill="#A7E7F2" d="M702.016 86.75c.55-.254.72-.89 1.27-1.186.297-.212.636-.34.975-.382l.423.043c-.169 1.016-1.27 1.228-1.779 1.948l-.889-.423Z"/>
  <path fill="#C1EEF6" d="m704.006 87.428 2.203-1.567c.17 0 .339.084.424.211-.593.72-1.229 1.44-2.203 1.568-.127 0-.297-.085-.424-.212Z"/>
  <path fill="#93E2F0" d="M703.372 84.76c-.678.677-1.61 1.016-2.203 1.778-.381-.042-.805.085-1.102-.211.678-.17 1.186-.636 1.695-1.102a2.463 2.463 0 0 1 1.059-.508l.551.042Z"/>
  <path fill="#70B4FC" d="M667.705 107.591c-.042.17-.042.339-.254.382-.975-.254-1.271-1.102-1.525-1.949.127-.254.169-.508.423-.678a2.734 2.734 0 0 1 1.356 2.245Z"/>
  <path fill="#AFEAF3" d="M702.905 87.173c.17-1.016 1.313-1.143 1.779-1.948l.678.212c-.381.89-1.44 1.059-1.991 1.779l-.466-.043Z"/>
  <path fill="#82C3F9" d="m674.143 104.457 1.44-1.101c.297-.212.593-.424.975-.212v.212c-.17.084-.255.254-.212.423-.72.466-1.186 1.398-2.203 1.313v-.635Z"/>
  <path fill="#BBDDFC" d="M669.018 102.678c.72.423 1.186 1.186 1.314 1.991l-.466.423-1.102-2.202.254-.212Z"/>
  <path fill="#E5F2FE" d="M671.686 103.821c-.339-.72-.593-1.525-1.313-1.991.296-.211.677-.72.931-.084.212.593 1.441 1.143.382 2.075Z"/>
  <path fill="#B6DAFC" d="M676.346 107.549c-.847.382-1.482.975-2.203 1.525 0-.296 0-.593-.042-.889.89-.212 1.356-1.144 2.203-1.356.042.297.042.509.042.72Z"/>
  <path fill="#EEFAFC" d="M708.455 89.843a4.82 4.82 0 0 0 1.991-1.314c.127.127.381.255.339.382-.085.72-1.652 1.355-2.33.932Z"/>
  <path fill="#63ACFC" d="M665.925 106.024c.509.635.848 1.398 1.525 1.949l-.381.762-1.44-2.287c.085-.17.212-.297.296-.424Z"/>
  <path fill="#7ABAFC" d="m667.705 107.592-1.356-2.245c.127-.17.297-.297.424-.466.72.635 1.398 1.313 1.101 2.457l-.169.254Z"/>
  <path fill="#8DC5FB" d="m667.408 104.203 1.355 1.99-.423.509c-.805-.424-1.017-1.313-1.398-2.034l.466-.465Z"/>
  <path fill="#F1F9FD" d="M699.814 100.263c.55.551.889 1.313 1.567 1.779-.805.508-1.059-.297-1.398-.678-.169-.254-.974-.635-.169-1.101Z"/>
  <path fill="#86C0FB" d="M666.984 104.668c.636.551.89 1.398 1.398 2.034l-.466.635c.043-1.017-.932-1.525-1.101-2.457l.169-.212Z"/>
  <path fill="#1E82FE" d="M665.036 113.988v.212c-.678.085-1.652-.381-1.568.932a4.367 4.367 0 0 1 0-2.33c-.211 1.356.721 1.271 1.568 1.186Z"/>
  <path fill="#006AFE" d="M694.476 128.602h-7.286c-1.144-.169-2.33-.042-3.474-.085-.381-.042-.804.085-1.186-.084h-.212c-.254-.254-.677-.339-.889-.593-.593-.72-1.44-.89-2.33-.89-.466 0-1.101.254-1.398-.466 3.686-.127 7.329.043 10.972.17.338 0 .635.127.847.381.889.974 1.948 1.61 3.389 1.398.466-.085 1.059-.212 1.567.169Z"/>
  <path fill="#0167FE" d="M677.701 126.442c.466.381 1.017.212 1.483.169 1.567-.212 2.372.72 3.177 1.779a14.367 14.367 0 0 0-2.33.043c-1.609.296-2.668-.678-3.77-1.568.254-.423.763-.042.975-.423h.465Zm4.83 1.948c1.525.127 3.092-.211 4.617.212h-4.617v-.212Z"/>
  <path fill="#067CFA" d="M695.153 126.612c1.737-.339 2.966.55 3.982 1.779-1.694.254-2.965-.509-3.982-1.779Z"/>
  <path fill="#2AB3EB" d="m684.521 88.063.212.424-.212.212c-.678 1.016-1.737 1.525-2.669 2.202-.169-.084-.254-.254-.211-.423l2.88-2.415Z"/>
  <path fill="#69D4EC" d="M714.47 96.705c-.635-.763-1.482-1.356-1.991-2.203h1.314l.635.974c.254.424.508.805.042 1.229Z"/>
  <path fill="#90C8FA" d="M674.101 105.134c.847-.254 1.271-1.27 2.203-1.313.085.975-.89 1.059-1.313 1.61a2.532 2.532 0 0 1-.89.593v-.89Z"/>
  <path fill="#69D5EB" d="M699.389 84.082c-.296.593-.932.805-1.44 1.143-.254.17-.551.255-.551.636h-.677c.72-.848 1.271-1.907 2.668-1.78Z"/>
  <path fill="#000" d="M624.114 172.649v-18.693h2.67v18.693h-2.67Zm8.106 0v-18.693h8.386c2.154 0 3.809.436 4.967 1.308 1.157.855 1.735 2.03 1.735 3.525 0 1.015-.231 1.869-.694 2.564a4.406 4.406 0 0 1-1.816 1.602 5.578 5.578 0 0 1-2.483.561l.48-.801c1.068 0 2.012.187 2.831.56a4.534 4.534 0 0 1 1.949 1.656c.481.712.721 1.602.721 2.671 0 1.602-.605 2.848-1.815 3.738-1.193.873-2.974 1.309-5.341 1.309h-8.92Zm2.671-2.163h6.142c1.477 0 2.608-.25 3.391-.748.784-.498 1.175-1.282 1.175-2.35 0-1.086-.391-1.878-1.175-2.377-.783-.498-1.914-.747-3.391-.747h-6.383V162.1h5.715c1.353 0 2.404-.249 3.151-.747.748-.499 1.122-1.246 1.122-2.243 0-.997-.374-1.745-1.122-2.244-.747-.498-1.798-.747-3.151-.747h-5.474v14.367Zm17.38 2.163v-18.693h2.19l8.385 14.126h-1.175l8.279-14.126h2.189l.027 18.693h-2.564l-.026-14.661h.614l-7.371 12.391h-1.228l-7.424-12.391h.668v14.661h-2.564Zm40.715.213c-1.424 0-2.742-.231-3.952-.694a9.689 9.689 0 0 1-3.125-2.003 9.669 9.669 0 0 1-2.056-3.044c-.499-1.157-.748-2.43-.748-3.819 0-1.388.249-2.661.748-3.819a9.149 9.149 0 0 1 2.083-3.017 9.119 9.119 0 0 1 3.124-2.003c1.211-.481 2.528-.721 3.953-.721 1.442 0 2.768.249 3.978.748a8.018 8.018 0 0 1 3.125 2.163l-1.736 1.682c-.712-.748-1.513-1.299-2.403-1.656a7.32 7.32 0 0 0-2.858-.56c-1.05 0-2.029.178-2.937.534a7.033 7.033 0 0 0-2.323 1.495 6.883 6.883 0 0 0-1.549 2.297c-.356.872-.534 1.825-.534 2.857 0 1.033.178 1.994.534 2.884.374.873.89 1.629 1.549 2.27a7.035 7.035 0 0 0 2.323 1.496 7.975 7.975 0 0 0 2.937.534 7.625 7.625 0 0 0 2.858-.534c.89-.374 1.691-.944 2.403-1.709l1.736 1.682a8.296 8.296 0 0 1-3.125 2.19c-1.21.498-2.545.747-4.005.747Zm10.405-.213v-19.815h2.564v19.815h-2.564Zm13.361.16c-1.425 0-2.689-.312-3.792-.935a6.947 6.947 0 0 1-2.617-2.563c-.641-1.104-.962-2.35-.962-3.739 0-1.406.321-2.653.962-3.739a6.758 6.758 0 0 1 2.617-2.537c1.103-.623 2.367-.934 3.792-.934 1.406 0 2.661.311 3.765.934a6.53 6.53 0 0 1 2.617 2.537c.641 1.069.961 2.315.961 3.739 0 1.407-.32 2.653-.961 3.739a6.705 6.705 0 0 1-2.617 2.563c-1.104.623-2.359.935-3.765.935Zm0-2.243c.908 0 1.718-.205 2.43-.614a4.34 4.34 0 0 0 1.709-1.736c.409-.766.614-1.647.614-2.644 0-1.015-.205-1.887-.614-2.617a4.34 4.34 0 0 0-1.709-1.736c-.712-.409-1.522-.614-2.43-.614-.908 0-1.718.205-2.43.614a4.578 4.578 0 0 0-1.71 1.736c-.427.73-.64 1.602-.64 2.617 0 .997.213 1.878.64 2.644a4.578 4.578 0 0 0 1.71 1.736c.712.409 1.522.614 2.43.614Zm16.684 2.243c-1.211 0-2.279-.223-3.205-.668a4.89 4.89 0 0 1-2.136-2.029c-.499-.926-.748-2.083-.748-3.472v-8.145h2.564v7.852c0 1.388.329 2.43.988 3.124.676.694 1.62 1.041 2.831 1.041.89 0 1.664-.178 2.323-.534a3.78 3.78 0 0 0 1.522-1.602c.356-.712.534-1.567.534-2.564v-7.317h2.564v14.154h-2.43v-3.819l.4 1.015a4.958 4.958 0 0 1-2.083 2.19c-.926.516-1.967.774-3.124.774Zm17.805 0c-1.371 0-2.599-.303-3.685-.908a6.676 6.676 0 0 1-2.537-2.537c-.623-1.086-.935-2.35-.935-3.792 0-1.442.312-2.697.935-3.765a6.676 6.676 0 0 1 2.537-2.537c1.086-.606 2.314-.908 3.685-.908 1.193 0 2.27.267 3.232.801.961.534 1.726 1.335 2.296 2.403.588 1.069.881 2.404.881 4.006 0 1.602-.284 2.938-.854 4.006-.552 1.068-1.309 1.878-2.27 2.43-.961.534-2.056.801-3.285.801Zm.214-2.243c.89 0 1.691-.205 2.403-.614.73-.41 1.3-.988 1.709-1.736.428-.766.641-1.647.641-2.644 0-1.015-.213-1.887-.641-2.617a4.333 4.333 0 0 0-1.709-1.736c-.712-.409-1.513-.614-2.403-.614-.908 0-1.718.205-2.43.614a4.575 4.575 0 0 0-1.709 1.736c-.428.73-.641 1.602-.641 2.617 0 .997.213 1.878.641 2.644a4.575 4.575 0 0 0 1.709 1.736c.712.409 1.522.614 2.43.614Zm4.833 2.083v-3.819l.161-3.285-.267-3.284v-9.427h2.563v19.815h-2.457Z"/>
  <defs>
    <clipPath id="a">
      <path fill="#fff" d="M447.905 98.399h91.559v55.317h-91.559z"/>
    </clipPath>
  </defs>
</svg>
