<svg xmlns="http://www.w3.org/2000/svg" width="24" height="25" fill="none" viewBox="0 0 24 25">
  <path fill="#42389E" d="M18.958 16.92a2.884 2.884 0 0 0-1.473.413l-2.78-2.781a3.62 3.62 0 0 0 0-4.015l1.857-1.857a2.208 2.208 0 1 0-1.031-1.031l-1.857 1.857a3.62 3.62 0 0 0-4.015 0L6.878 6.725c.268-.445.41-.953.413-1.472a2.917 2.917 0 1 0-2.916 2.916 2.884 2.884 0 0 0 1.473-.413l2.78 2.78a3.62 3.62 0 0 0 0 4.016l-2.781 2.78a2.884 2.884 0 0 0-1.472-.413 2.917 2.917 0 1 0 2.916 2.917 2.884 2.884 0 0 0-.413-1.473l2.781-2.78c.388.258.822.44 1.278.533v2.396a2.187 2.187 0 1 0 1.459 0v-2.396c.456-.093.89-.275 1.278-.533l2.78 2.78c-.267.445-.41.954-.413 1.473a2.916 2.916 0 1 0 2.917-2.917Zm-7.292-6.563a2.188 2.188 0 1 1 0 4.375 2.188 2.188 0 0 1 0-4.375Zm-8.75-5.104a1.458 1.458 0 1 1 2.917 0 1.458 1.458 0 0 1-2.917 0Zm1.459 16.041a1.459 1.459 0 1 1 0-2.917 1.459 1.459 0 0 1 0 2.917Zm14.583 0a1.459 1.459 0 1 1 0-2.917 1.459 1.459 0 0 1 0 2.917Z"/>
</svg>
