<svg xmlns="http://www.w3.org/2000/svg" width="21" height="20" fill="none" viewBox="0 0 21 20">
  <path fill="#252430" fill-rule="evenodd" d="M12.113 1.361a2.5 2.5 0 0 0-3.226 0l-.848.716a2.5 2.5 0 0 1-1.401.58l-1.106.094a2.5 2.5 0 0 0-2.28 2.28l-.094 1.107a2.5 2.5 0 0 1-.581 1.401l-.716.848a2.5 2.5 0 0 0 0 3.226l.716.848a2.5 2.5 0 0 1 .58 1.402l.094 1.106a2.5 2.5 0 0 0 2.28 2.28l1.107.093a2.5 2.5 0 0 1 1.401.581l.848.716a2.5 2.5 0 0 0 3.226 0l.848-.716a2.5 2.5 0 0 1 1.402-.58l1.106-.094a2.5 2.5 0 0 0 2.28-2.28l.093-1.106a2.5 2.5 0 0 1 .581-1.402l.716-.848a2.5 2.5 0 0 0 0-3.226l-.716-.848a2.5 2.5 0 0 1-.58-1.401l-.094-1.106a2.5 2.5 0 0 0-2.28-2.28l-1.106-.094a2.5 2.5 0 0 1-1.402-.581l-.848-.716Zm2.933 6.935a1.125 1.125 0 1 0-1.591-1.591l-4.204 4.204-1.705-1.704a1.125 1.125 0 1 0-1.591 1.59l2.5 2.5c.44.44 1.152.44 1.591 0l5-5Z" clip-rule="evenodd"/>
</svg>
